<?xml version="1.0" encoding="UTF-8"?>
<!DOCTYPE svg PUBLIC "-//W3C//DTD SVG 1.1//EN" "http://www.w3.org/Graphics/SVG/1.1/DTD/svg11.dtd">
<svg xmlns="http://www.w3.org/2000/svg" version="1.1" width="500px" height="500px" style="shape-rendering:geometricPrecision; text-rendering:geometricPrecision; image-rendering:optimizeQuality; fill-rule:evenodd; clip-rule:evenodd" xmlns:xlink="http://www.w3.org/1999/xlink">
<g><path style="opacity:0.514" fill="#e9ab6e" d="M 244.5,135.5 C 240.154,135.334 235.821,135.501 231.5,136C 228.264,137.786 224.93,139.286 221.5,140.5C 224.943,136.778 229.277,134.611 234.5,134C 238.112,133.326 241.446,133.826 244.5,135.5 Z"/></g>
<g><path style="opacity:0.596" fill="#ecaf78" d="M 281.5,139.5 C 278.235,139.082 275.235,137.915 272.5,136C 266.805,135.374 261.138,135.541 255.5,136.5C 260.04,133.704 265.04,132.871 270.5,134C 274.776,134.805 278.443,136.638 281.5,139.5 Z"/></g>
<g><path style="opacity:0.118" fill="#eabc8f" d="M 282.5,139.5 C 283.627,140.122 284.627,140.955 285.5,142C 289.025,142.179 292.359,142.679 295.5,143.5C 292.167,143.5 288.833,143.5 285.5,143.5C 283.554,142.965 282.554,141.632 282.5,139.5 Z"/></g>
<g><path style="opacity:0.863" fill="#e39052" d="M 285.5,143.5 C 288.833,143.5 292.167,143.5 295.5,143.5C 297.153,143.66 298.486,144.326 299.5,145.5C 294.662,145.089 289.995,144.422 285.5,143.5 Z"/></g>
<g><path style="opacity:0.388" fill="#ebb68f" d="M 244.5,146.5 C 245.5,146.5 246.5,146.5 247.5,146.5C 246.325,152.55 248.658,155.55 254.5,155.5C 252.712,156.622 250.712,156.789 248.5,156C 247.228,152.755 245.894,149.588 244.5,146.5 Z"/></g>
<g><path style="opacity:1" fill="#f48222" d="M 244.5,135.5 C 245.911,137.539 247.911,138.539 250.5,138.5C 252.167,137.833 253.833,137.167 255.5,136.5C 261.138,135.541 266.805,135.374 272.5,136C 275.235,137.915 278.235,139.082 281.5,139.5C 281.833,139.5 282.167,139.5 282.5,139.5C 282.554,141.632 283.554,142.965 285.5,143.5C 289.995,144.422 294.662,145.089 299.5,145.5C 301.675,148.642 303.675,151.975 305.5,155.5C 305.081,156.672 304.415,157.672 303.5,158.5C 306.316,159.64 307.982,161.64 308.5,164.5C 306.167,164.5 303.833,164.5 301.5,164.5C 301.629,166.216 301.962,167.883 302.5,169.5C 300.088,169.694 299.088,171.027 299.5,173.5C 297.167,173.5 294.833,173.5 292.5,173.5C 292.34,171.801 292.506,170.134 293,168.5C 294.859,167.421 296.359,166.088 297.5,164.5C 298.496,164.586 299.329,164.252 300,163.5C 301.571,153.901 297.405,149.568 287.5,150.5C 286.749,151.376 286.249,152.376 286,153.5C 285.501,157.152 285.335,160.818 285.5,164.5C 280.178,163.971 274.844,163.471 269.5,163C 268.232,160.837 268.232,158.67 269.5,156.5C 272.152,156.59 274.485,155.924 276.5,154.5C 277.714,152.192 277.714,149.859 276.5,147.5C 274.725,146.162 273.059,144.829 271.5,143.5C 269.696,142.838 267.696,142.505 265.5,142.5C 261.927,142.399 258.594,143.066 255.5,144.5C 255.5,145.5 255.5,146.5 255.5,147.5C 254.532,149.607 254.198,151.941 254.5,154.5C 252.856,154.714 251.356,154.38 250,153.5C 249.229,150.81 248.396,148.144 247.5,145.5C 245.827,143.914 243.827,143.247 241.5,143.5C 238.024,142.357 234.358,142.19 230.5,143C 229.833,143.667 229.167,144.333 228.5,145C 226.08,144.012 223.747,144.345 221.5,146C 222.167,146.333 222.833,146.667 223.5,147C 222.848,149.09 222.681,151.257 223,153.5C 221.541,155.81 219.708,156.143 217.5,154.5C 215.283,152.92 212.616,151.92 209.5,151.5C 208.754,150.264 208.421,148.93 208.5,147.5C 212.226,147.823 215.893,147.489 219.5,146.5C 221.086,144.827 221.753,142.827 221.5,140.5C 224.93,139.286 228.264,137.786 231.5,136C 235.821,135.501 240.154,135.334 244.5,135.5 Z"/></g>
<g><path style="opacity:0.996" fill="#e69148" d="M 241.5,143.5 C 243.827,143.247 245.827,143.914 247.5,145.5C 248.396,148.144 249.229,150.81 250,153.5C 251.356,154.38 252.856,154.714 254.5,154.5C 254.198,151.941 254.532,149.607 255.5,147.5C 255.5,149.5 255.5,151.5 255.5,153.5C 255.672,154.492 255.338,155.158 254.5,155.5C 248.658,155.55 246.325,152.55 247.5,146.5C 246.5,146.5 245.5,146.5 244.5,146.5C 243.306,145.728 242.306,144.728 241.5,143.5 Z"/></g>
<g><path style="opacity:0.596" fill="#eab183" d="M 271.5,143.5 C 267.818,143.335 264.152,143.501 260.5,144C 257.357,146.453 255.691,149.62 255.5,153.5C 255.5,151.5 255.5,149.5 255.5,147.5C 255.5,146.5 255.5,145.5 255.5,144.5C 258.594,143.066 261.927,142.399 265.5,142.5C 267.696,142.505 269.696,142.838 271.5,143.5 Z"/></g>
<g><path style="opacity:0.361" fill="#ecb484" d="M 244.5,135.5 C 246.97,135.654 248.97,136.654 250.5,138.5C 247.911,138.539 245.911,137.539 244.5,135.5 Z"/></g>
<g><path style="opacity:1" fill="#ee8934" d="M 241.5,143.5 C 232.02,142.22 226.686,146.22 225.5,155.5C 227.052,159.038 228.052,162.704 228.5,166.5C 226.167,166.5 223.833,166.5 221.5,166.5C 219.331,164.66 217.998,162.326 217.5,159.5C 217.5,157.833 217.5,156.167 217.5,154.5C 219.708,156.143 221.541,155.81 223,153.5C 222.681,151.257 222.848,149.09 223.5,147C 222.833,146.667 222.167,146.333 221.5,146C 223.747,144.345 226.08,144.012 228.5,145C 229.167,144.333 229.833,143.667 230.5,143C 234.358,142.19 238.024,142.357 241.5,143.5 Z"/></g>
<g><path style="opacity:1" fill="#ed964d" d="M 221.5,140.5 C 221.753,142.827 221.086,144.827 219.5,146.5C 215.893,147.489 212.226,147.823 208.5,147.5C 208.421,148.93 208.754,150.264 209.5,151.5C 212.616,151.92 215.283,152.92 217.5,154.5C 215.716,153.28 214.05,153.28 212.5,154.5C 210.488,155.524 208.822,157.024 207.5,159C 208.094,159.464 208.761,159.631 209.5,159.5C 209.5,160.167 209.5,160.833 209.5,161.5C 208.167,161.5 206.833,161.5 205.5,161.5C 206.643,158.316 207.309,154.983 207.5,151.5C 205.801,151.34 204.134,151.506 202.5,152C 200.295,155.74 198.128,159.573 196,163.5C 194.53,164.267 193.03,164.933 191.5,165.5C 194.802,159.578 198.802,153.912 203.5,148.5C 207.954,145.312 212.954,143.812 218.5,144C 219.163,142.482 220.163,141.315 221.5,140.5 Z"/></g>
<g><path style="opacity:0.29" fill="#f3c99c" d="M 276.5,154.5 C 274.485,155.924 272.152,156.59 269.5,156.5C 271.515,155.076 273.848,154.41 276.5,154.5 Z"/></g>
<g><path style="opacity:0.2" fill="#eab382" d="M 212.5,154.5 C 214.05,153.28 215.716,153.28 217.5,154.5C 217.5,156.167 217.5,157.833 217.5,159.5C 216.71,158.391 216.21,157.058 216,155.5C 214.989,154.663 213.822,154.33 212.5,154.5 Z"/></g>
<g><path style="opacity:0.365" fill="#ecaf7d" d="M 306.5,152.5 C 307.892,154.273 309.059,156.273 310,158.5C 312.617,159.219 314.784,160.553 316.5,162.5C 309.95,162.249 306.617,158.915 306.5,152.5 Z"/></g>
<g><path style="opacity:0.639" fill="#ecb583" d="M 225.5,155.5 C 227.586,157.8 229.252,160.466 230.5,163.5C 228.793,168.736 225.793,169.736 221.5,166.5C 223.833,166.5 226.167,166.5 228.5,166.5C 228.052,162.704 227.052,159.038 225.5,155.5 Z"/></g>
<g><path style="opacity:1" fill="#ed8735" d="M 299.5,145.5 C 302.855,146.855 305.189,149.189 306.5,152.5C 306.617,158.915 309.95,162.249 316.5,162.5C 318.19,162.856 319.19,163.856 319.5,165.5C 319.557,166.609 319.89,167.609 320.5,168.5C 317.789,167.137 315.289,165.47 313,163.5C 311.72,163.613 310.887,164.28 310.5,165.5C 312.297,166.695 313.297,168.362 313.5,170.5C 314.5,170.5 315.5,170.5 316.5,170.5C 317.412,174.131 317.579,177.797 317,181.5C 316.617,182.056 316.117,182.389 315.5,182.5C 316.378,176.433 314.378,171.767 309.5,168.5C 309.265,167.903 308.765,167.57 308,167.5C 306.2,168.32 304.366,168.986 302.5,169.5C 301.962,167.883 301.629,166.216 301.5,164.5C 303.833,164.5 306.167,164.5 308.5,164.5C 307.982,161.64 306.316,159.64 303.5,158.5C 304.415,157.672 305.081,156.672 305.5,155.5C 303.675,151.975 301.675,148.642 299.5,145.5 Z"/></g>
<g><path style="opacity:0.561" fill="#e7a76c" d="M 297.5,164.5 C 300.329,159.914 299.329,156.081 294.5,153C 291.653,152.056 289.153,152.556 287,154.5C 287,157.833 287,161.167 287,164.5C 285.874,165.944 284.374,166.61 282.5,166.5C 277.731,166.065 273.064,165.231 268.5,164C 265.974,161.088 266.308,158.588 269.5,156.5C 268.232,158.67 268.232,160.837 269.5,163C 274.844,163.471 280.178,163.971 285.5,164.5C 285.335,160.818 285.501,157.152 286,153.5C 286.249,152.376 286.749,151.376 287.5,150.5C 297.405,149.568 301.571,153.901 300,163.5C 299.329,164.252 298.496,164.586 297.5,164.5 Z"/></g>
<g><path style="opacity:0.88" fill="#e5a775" d="M 209.5,159.5 C 210.496,159.414 211.329,159.748 212,160.5C 214.486,169.166 211.32,171.832 202.5,168.5C 205.287,167.523 208.287,167.19 211.5,167.5C 211.741,165.102 211.074,163.102 209.5,161.5C 209.5,160.833 209.5,160.167 209.5,159.5 Z"/></g>
<g><path style="opacity:0.412" fill="#eaac75" d="M 319.5,165.5 C 321.708,166.894 323.208,168.894 324,171.5C 324.346,174.576 325.012,177.576 326,180.5C 328.454,182.441 330.287,184.775 331.5,187.5C 328.939,185.629 326.439,183.629 324,181.5C 324.043,176.713 322.877,172.379 320.5,168.5C 319.89,167.609 319.557,166.609 319.5,165.5 Z"/></g>
<g><path style="opacity:0.208" fill="#ecb47d" d="M 202.5,168.5 C 200.955,169.64 199.288,170.64 197.5,171.5C 198.048,168.916 199.715,167.916 202.5,168.5 Z"/></g>
<g><path style="opacity:1" fill="#eca972" d="M 237.5,175.5 C 237.785,173.712 237.452,172.045 236.5,170.5C 235.817,170.863 235.15,171.196 234.5,171.5C 235.685,167.432 238.185,165.766 242,166.5C 242.667,167.5 242.667,168.5 242,169.5C 240.236,171.389 238.736,173.389 237.5,175.5 Z"/></g>
<g><path style="opacity:0.894" fill="#e7a66d" d="M 297.5,164.5 C 296.359,166.088 294.859,167.421 293,168.5C 292.506,170.134 292.34,171.801 292.5,173.5C 294.833,173.5 297.167,173.5 299.5,173.5C 299.088,171.027 300.088,169.694 302.5,169.5C 304.366,168.986 306.2,168.32 308,167.5C 308.765,167.57 309.265,167.903 309.5,168.5C 305.712,169.898 302.379,172.065 299.5,175C 293.021,177.168 290.188,175.001 291,168.5C 292.638,166.266 294.805,164.933 297.5,164.5 Z"/></g>
<g><path style="opacity:0.988" fill="#e68f44" d="M 237.5,175.5 C 237.5,176.167 237.5,176.833 237.5,177.5C 243.653,178.328 249.987,178.828 256.5,179C 257.252,179.671 257.586,180.504 257.5,181.5C 255.6,184.518 254.267,187.851 253.5,191.5C 253.5,192.833 252.833,193.5 251.5,193.5C 250.325,193.719 249.325,193.386 248.5,192.5C 250.415,190.929 251.415,188.929 251.5,186.5C 251.5,186.167 251.5,185.833 251.5,185.5C 252.434,184.432 252.768,183.099 252.5,181.5C 247.305,181.179 242.305,181.513 237.5,182.5C 237.617,186.357 239.45,189.024 243,190.5C 244.864,192.955 244.698,195.122 242.5,197C 239.97,197.379 237.637,198.213 235.5,199.5C 236.031,196.221 238.031,194.887 241.5,195.5C 241.66,193.801 241.494,192.134 241,190.5C 239,189.833 237.667,188.5 237,186.5C 236.821,183.447 236.321,180.447 235.5,177.5C 233.889,178.32 233.222,179.654 233.5,181.5C 229.883,180.343 226.216,180.343 222.5,181.5C 222.675,184.329 221.342,185.996 218.5,186.5C 218.624,187.107 218.957,187.44 219.5,187.5C 219.369,188.376 219.702,189.043 220.5,189.5C 221.396,188.494 222.062,188.494 222.5,189.5C 220.926,190.631 219.259,190.798 217.5,190C 216.941,189.275 216.608,188.442 216.5,187.5C 217.197,183.529 217.697,179.529 218,175.5C 221.394,174.544 224.894,174.211 228.5,174.5C 228.263,175.791 228.596,176.791 229.5,177.5C 230.5,177.5 231.5,177.5 232.5,177.5C 232.604,175.297 233.27,173.297 234.5,171.5C 235.15,171.196 235.817,170.863 236.5,170.5C 237.452,172.045 237.785,173.712 237.5,175.5 Z"/></g>
<g><path style="opacity:0.588" fill="#eab278" d="M 205.5,183.5 C 205.5,183.167 205.5,182.833 205.5,182.5C 207.5,182.5 209.5,182.5 211.5,182.5C 211.5,180.5 211.5,178.5 211.5,176.5C 207.833,176.5 204.167,176.5 200.5,176.5C 200.5,178.5 200.5,180.5 200.5,182.5C 199.532,180.393 199.198,178.059 199.5,175.5C 204.001,174.194 208.501,174.194 213,175.5C 212.333,177.833 212.333,180.167 213,182.5C 210.619,183.435 208.119,183.768 205.5,183.5 Z"/></g>
<g><path style="opacity:0.784" fill="#e7b285" d="M 285.5,180.5 C 284.566,179.432 284.232,178.099 284.5,176.5C 276.895,175.56 274.895,178.393 278.5,185C 280.81,185.497 283.143,185.663 285.5,185.5C 285.5,184.167 285.5,182.833 285.5,181.5C 288.465,185.412 287.298,187.079 282,186.5C 277.413,187.079 275.247,185.079 275.5,180.5C 275.09,176.411 276.923,174.411 281,174.5C 285.219,174.631 286.719,176.631 285.5,180.5 Z"/></g>
<g><path style="opacity:0.992" fill="#e69f63" d="M 260.5,181.5 C 259.5,181.5 258.5,181.5 257.5,181.5C 257.586,180.504 257.252,179.671 256.5,179C 249.987,178.828 243.653,178.328 237.5,177.5C 242.167,177.5 246.833,177.5 251.5,177.5C 249.904,173.255 247.904,169.255 245.5,165.5C 252.544,166.216 256.211,170.216 256.5,177.5C 258.167,177.5 259.833,177.5 261.5,177.5C 262.077,172.195 265.077,170.362 270.5,172C 275.397,176.122 275.73,180.622 271.5,185.5C 266.495,187.62 262.828,186.287 260.5,181.5 Z M 266.5,175.5 C 267.5,175.5 268.5,175.5 269.5,175.5C 269.5,177.5 269.5,179.5 269.5,181.5C 264.707,181.089 263.707,179.089 266.5,175.5 Z"/></g>
<g><path style="opacity:0.545" fill="#ebaa72" d="M 191.5,165.5 C 189.414,169.881 187.414,174.214 185.5,178.5C 185.125,172.924 187.125,168.591 191.5,165.5 Z"/></g>
<g><path style="opacity:0.184" fill="#ecad80" d="M 197.5,171.5 C 194.98,176.118 193.98,181.118 194.5,186.5C 193.353,182.354 193.186,178.02 194,173.5C 194.816,172.177 195.983,171.511 197.5,171.5 Z"/></g>
<g><path style="opacity:0.18" fill="#ed903a" d="M 205.5,182.5 C 203.833,182.5 202.167,182.5 200.5,182.5C 200.5,180.5 200.5,178.5 200.5,176.5C 204.167,176.5 207.833,176.5 211.5,176.5C 211.5,178.5 211.5,180.5 211.5,182.5C 209.5,182.5 207.5,182.5 205.5,182.5 Z"/></g>
<g><path style="opacity:0.82" fill="#e2914c" d="M 285.5,180.5 C 285.5,180.833 285.5,181.167 285.5,181.5C 285.5,182.833 285.5,184.167 285.5,185.5C 283.143,185.663 280.81,185.497 278.5,185C 274.895,178.393 276.895,175.56 284.5,176.5C 284.232,178.099 284.566,179.432 285.5,180.5 Z M 279.5,178.5 C 281.332,179.14 281.665,180.14 280.5,181.5C 279.614,180.675 279.281,179.675 279.5,178.5 Z"/></g>
<g><path style="opacity:0.106" fill="#fed8b2" d="M 237.5,182.5 C 242.305,181.513 247.305,181.179 252.5,181.5C 252.768,183.099 252.434,184.432 251.5,185.5C 251.5,184.5 251.5,183.5 251.5,182.5C 246.833,182.5 242.167,182.5 237.5,182.5 Z"/></g>
<g><path style="opacity:0.255" fill="#f6c8a3" d="M 199.5,175.5 C 199.198,178.059 199.532,180.393 200.5,182.5C 202.167,182.5 203.833,182.5 205.5,182.5C 205.5,182.833 205.5,183.167 205.5,183.5C 203.193,183.986 201.027,183.986 199,183.5C 198.199,180.633 198.366,177.966 199.5,175.5 Z"/></g>
<g><path style="opacity:0.996" fill="#e5a76d" d="M 229.5,177.5 C 228.596,176.791 228.263,175.791 228.5,174.5C 224.894,174.211 221.394,174.544 218,175.5C 217.697,179.529 217.197,183.529 216.5,187.5C 216.608,188.442 216.941,189.275 217.5,190C 219.259,190.798 220.926,190.631 222.5,189.5C 222.062,188.494 221.396,188.494 220.5,189.5C 219.702,189.043 219.369,188.376 219.5,187.5C 218.957,187.44 218.624,187.107 218.5,186.5C 221.342,185.996 222.675,184.329 222.5,181.5C 226.216,180.343 229.883,180.343 233.5,181.5C 234.355,184.486 234.855,187.486 235,190.5C 233.644,191.38 232.144,191.714 230.5,191.5C 231.347,190.034 232.68,189.2 234.5,189C 232.996,187.509 232.163,185.676 232,183.5C 229.599,182.398 227.099,182.231 224.5,183C 227.328,190.164 224.995,193.164 217.5,192C 217,191.5 216.5,191 216,190.5C 216.545,184.87 216.379,179.204 215.5,173.5C 220.167,173.5 224.833,173.5 229.5,173.5C 229.5,174.833 229.5,176.167 229.5,177.5 Z"/></g>
<g><path style="opacity:0.396" fill="#efc79b" d="M 257.5,181.5 C 258.5,181.5 259.5,181.5 260.5,181.5C 259.791,182.404 258.791,182.737 257.5,182.5C 257.308,186.102 255.974,189.102 253.5,191.5C 254.267,187.851 255.6,184.518 257.5,181.5 Z"/></g>
<g><path style="opacity:1" fill="#f58221" d="M 209.5,161.5 C 211.074,163.102 211.741,165.102 211.5,167.5C 208.287,167.19 205.287,167.523 202.5,168.5C 199.715,167.916 198.048,168.916 197.5,171.5C 195.983,171.511 194.816,172.177 194,173.5C 193.186,178.02 193.353,182.354 194.5,186.5C 195.308,188.22 196.308,189.887 197.5,191.5C 197.343,192.873 197.51,194.207 198,195.5C 199.947,196.11 201.781,196.943 203.5,198C 210.679,198.821 217.679,198.655 224.5,197.5C 226.833,195.833 228.833,193.833 230.5,191.5C 232.144,191.714 233.644,191.38 235,190.5C 234.855,187.486 234.355,184.486 233.5,181.5C 233.222,179.654 233.889,178.32 235.5,177.5C 236.321,180.447 236.821,183.447 237,186.5C 237.667,188.5 239,189.833 241,190.5C 241.494,192.134 241.66,193.801 241.5,195.5C 238.031,194.887 236.031,196.221 235.5,199.5C 235.167,199.5 234.833,199.5 234.5,199.5C 233.5,199.5 232.5,199.5 231.5,199.5C 230.793,202.786 230.46,206.119 230.5,209.5C 230.62,211.734 230.287,213.901 229.5,216C 230.893,217.301 231.393,218.801 231,220.5C 230.184,219.177 229.017,218.511 227.5,218.5C 225.573,214.422 223.907,210.255 222.5,206C 214.098,205.718 205.765,204.885 197.5,203.5C 195.743,200.898 193.743,198.398 191.5,196C 190.852,194.56 190.519,193.06 190.5,191.5C 188.876,191.64 187.71,190.973 187,189.5C 186.174,186.207 185.674,182.874 185.5,179.5C 185.5,179.167 185.5,178.833 185.5,178.5C 187.414,174.214 189.414,169.881 191.5,165.5C 193.03,164.933 194.53,164.267 196,163.5C 198.128,159.573 200.295,155.74 202.5,152C 204.134,151.506 205.801,151.34 207.5,151.5C 207.309,154.983 206.643,158.316 205.5,161.5C 206.833,161.5 208.167,161.5 209.5,161.5 Z"/></g>
<g><path style="opacity:1" fill="#f28528" d="M 295.5,183.5 C 297.792,183.244 299.959,183.577 302,184.5C 302.499,188.821 302.666,193.154 302.5,197.5C 300.208,197.756 298.041,197.423 296,196.5C 295.501,192.179 295.334,187.846 295.5,183.5 Z"/></g>
<g><path style="opacity:1" fill="#e88f49" d="M 315.5,182.5 C 314.5,186.5 313.5,190.5 312.5,194.5C 316.5,194.5 318.5,192.5 318.5,188.5C 320.604,188.201 322.604,188.534 324.5,189.5C 325.127,190.417 325.461,191.417 325.5,192.5C 324.833,192.5 324.167,192.5 323.5,192.5C 323.217,191.711 322.717,191.044 322,190.5C 320.25,192.424 318.417,194.091 316.5,195.5C 311.5,196.5 309.5,194.5 310.5,189.5C 311.924,186.982 313.591,184.649 315.5,182.5 Z"/></g>
<g><path style="opacity:1" fill="#eba267" d="M 185.5,179.5 C 185.674,182.874 186.174,186.207 187,189.5C 187.71,190.973 188.876,191.64 190.5,191.5C 190.519,193.06 190.852,194.56 191.5,196C 193.743,198.398 195.743,200.898 197.5,203.5C 187.956,198.17 183.956,190.17 185.5,179.5 Z"/></g>
<g><path style="opacity:0.263" fill="#e8b790" d="M 251.5,186.5 C 251.415,188.929 250.415,190.929 248.5,192.5C 249.325,193.386 250.325,193.719 251.5,193.5C 249.457,196.478 248.124,196.145 247.5,192.5C 248.465,190.211 249.798,188.211 251.5,186.5 Z"/></g>
<g><path style="opacity:0.314" fill="#e9af7f" d="M 295.5,183.5 C 295.334,187.846 295.501,192.179 296,196.5C 298.041,197.423 300.208,197.756 302.5,197.5C 300.201,200.002 297.701,200.002 295,197.5C 294.185,192.648 294.352,187.981 295.5,183.5 Z"/></g>
<g><path style="opacity:0.714" fill="#e6b182" d="M 310.5,189.5 C 309.5,194.5 311.5,196.5 316.5,195.5C 314.712,196.622 312.712,196.789 310.5,196C 307.959,193.607 307.959,191.44 310.5,189.5 Z"/></g>
<g><path style="opacity:0.639" fill="#edba93" d="M 302.5,197.5 C 302.666,193.154 302.499,188.821 302,184.5C 299.959,183.577 297.792,183.244 295.5,183.5C 297.943,181.048 300.443,181.048 303,183.5C 304.534,187.711 304.867,192.044 304,196.5C 303.617,197.056 303.117,197.389 302.5,197.5 Z"/></g>
<g><path style="opacity:0.961" fill="#e79e5d" d="M 197.5,191.5 C 203.206,196.266 209.873,198.266 217.5,197.5C 219.833,197.5 222.167,197.5 224.5,197.5C 217.679,198.655 210.679,198.821 203.5,198C 201.781,196.943 199.947,196.11 198,195.5C 197.51,194.207 197.343,192.873 197.5,191.5 Z"/></g>
<g><path style="opacity:0.278" fill="#fad8be" d="M 230.5,191.5 C 228.833,193.833 226.833,195.833 224.5,197.5C 222.167,197.5 219.833,197.5 217.5,197.5C 219.631,196.686 221.964,196.186 224.5,196C 226.114,193.873 228.114,192.373 230.5,191.5 Z"/></g>
<g><path style="opacity:0.663" fill="#e6a975" d="M 332.5,188.5 C 334.273,191.495 335.273,194.828 335.5,198.5C 332.973,205.832 331.64,213.165 331.5,220.5C 331.327,212.917 331.993,205.417 333.5,198C 333.256,194.814 332.923,191.647 332.5,188.5 Z"/></g>
<g><path style="opacity:1" fill="#153248" d="M 184.5,197.5 C 182.167,196.833 179.833,196.167 177.5,195.5C 176.514,197.844 175.181,200.011 173.5,202C 174.691,235.491 174.691,268.991 173.5,302.5C 179.893,303.255 185.893,303.922 191.5,304.5C 185.451,305.135 179.451,305.968 173.5,307C 179.167,307.333 184.833,307.667 190.5,308C 191.308,309.706 192.641,310.539 194.5,310.5C 195.5,310.5 196.5,310.5 197.5,310.5C 197.5,310.833 197.5,311.167 197.5,311.5C 186.585,311.82 175.752,311.487 165,310.5C 164.271,271.093 164.438,231.76 165.5,192.5C 170.878,192.602 176.045,192.602 181,192.5C 182.802,193.789 183.969,195.456 184.5,197.5 Z"/></g>
<g><path style="opacity:0.686" fill="#efae7f" d="M 234.5,199.5 C 232.022,202.329 231.022,205.662 231.5,209.5C 231.167,209.5 230.833,209.5 230.5,209.5C 230.46,206.119 230.793,202.786 231.5,199.5C 232.5,199.5 233.5,199.5 234.5,199.5 Z"/></g>
<g><path style="opacity:0.652" fill="#e9af76" d="M 286.5,201.5 C 286.5,201.833 286.5,202.167 286.5,202.5C 276.167,202.5 265.833,202.5 255.5,202.5C 255.918,201.778 256.584,201.278 257.5,201C 267.244,200.194 276.911,200.361 286.5,201.5 Z"/></g>
<g><path style="opacity:0.984" fill="#e9ae76" d="M 323.5,192.5 C 324.167,192.5 324.833,192.5 325.5,192.5C 327.09,196.922 326.424,201.088 323.5,205C 316.833,205.333 310.167,205.667 303.5,206C 302.233,207.796 302.233,209.629 303.5,211.5C 310.321,212.167 316.988,212.833 323.5,213.5C 323.5,213.833 323.5,214.167 323.5,214.5C 317.158,214.666 310.825,214.5 304.5,214C 302.09,213.242 301.09,211.575 301.5,209C 301.559,207.564 301.892,206.231 302.5,205C 309.274,204.922 315.941,204.255 322.5,203C 326.017,199.777 326.35,196.277 323.5,192.5 Z"/></g>
<g><path style="opacity:1" fill="#062b43" d="M 184.5,197.5 C 183.537,200.657 181.87,203.49 179.5,206C 180.424,207.811 181.257,207.645 182,205.5C 183.971,210.211 183.804,214.878 181.5,219.5C 182.582,224.915 183.915,230.249 185.5,235.5C 183.881,238.642 183.215,241.975 183.5,245.5C 185.429,245.231 187.095,245.731 188.5,247C 186.234,249.381 186.901,251.215 190.5,252.5C 191.524,251.147 192.857,250.48 194.5,250.5C 195.785,270.648 195.785,290.648 194.5,310.5C 192.641,310.539 191.308,309.706 190.5,308C 184.833,307.667 179.167,307.333 173.5,307C 179.451,305.968 185.451,305.135 191.5,304.5C 185.893,303.922 179.893,303.255 173.5,302.5C 174.691,268.991 174.691,235.491 173.5,202C 175.181,200.011 176.514,197.844 177.5,195.5C 179.833,196.167 182.167,196.833 184.5,197.5 Z"/></g>
<g><path style="opacity:0.247" fill="#f5d3bc" d="M 286.5,201.5 C 287.993,202.312 288.66,203.645 288.5,205.5C 288.48,206.726 288.147,207.726 287.5,208.5C 287.784,206.585 287.451,204.919 286.5,203.5C 286.5,203.167 286.5,202.833 286.5,202.5C 286.5,202.167 286.5,201.833 286.5,201.5 Z"/></g>
<g><path style="opacity:1" fill="#133046" d="M 184.5,197.5 C 190.268,205.057 197.934,209.557 207.5,211C 213.734,218.059 219.734,225.226 225.5,232.5C 223.908,231.398 223.075,232.065 223,234.5C 222.667,233.167 222.333,231.833 222,230.5C 221.439,231.022 220.772,231.355 220,231.5C 216.027,228.903 213.527,225.236 212.5,220.5C 210.5,219.167 208.833,217.5 207.5,215.5C 205.077,214.271 202.577,213.271 200,212.5C 198.58,214.422 196.747,215.755 194.5,216.5C 195.824,217.935 197.49,218.935 199.5,219.5C 195.494,221.058 191.494,222.391 187.5,223.5C 187.167,226.5 188.5,227.833 191.5,227.5C 191.5,228.833 191.5,230.167 191.5,231.5C 189.473,231.338 187.473,231.505 185.5,232C 190.833,234.333 190.833,236.667 185.5,239C 187.674,241.965 190.008,242.131 192.5,239.5C 194.001,240.752 195.668,241.752 197.5,242.5C 196.689,243.216 196.022,244.05 195.5,245C 196.958,246.752 198.291,248.585 199.5,250.5C 200.086,250.291 200.586,249.957 201,249.5C 202.739,252.779 205.573,255.613 209.5,258C 208.701,259.749 209.368,261.082 211.5,262C 210.833,262.333 210.167,262.667 209.5,263C 210.973,263.71 211.64,264.876 211.5,266.5C 207.184,262.178 203.184,257.511 199.5,252.5C 199.44,251.957 199.107,251.624 198.5,251.5C 197.5,271.155 197.167,290.822 197.5,310.5C 196.5,310.5 195.5,310.5 194.5,310.5C 195.785,290.648 195.785,270.648 194.5,250.5C 192.857,250.48 191.524,251.147 190.5,252.5C 186.901,251.215 186.234,249.381 188.5,247C 187.095,245.731 185.429,245.231 183.5,245.5C 183.215,241.975 183.881,238.642 185.5,235.5C 183.915,230.249 182.582,224.915 181.5,219.5C 183.804,214.878 183.971,210.211 182,205.5C 181.257,207.645 180.424,207.811 179.5,206C 181.87,203.49 183.537,200.657 184.5,197.5 Z"/></g>
<g><path style="opacity:0.808" fill="#df8c47" d="M 286.5,203.5 C 287.451,204.919 287.784,206.585 287.5,208.5C 287.5,209.167 287.167,209.5 286.5,209.5C 276.833,209.5 267.167,209.5 257.5,209.5C 266.986,208.506 276.652,208.173 286.5,208.5C 286.5,206.833 286.5,205.167 286.5,203.5 Z"/></g>
<g><path style="opacity:0.996" fill="#e8a873" d="M 197.5,203.5 C 205.765,204.885 214.098,205.718 222.5,206C 223.907,210.255 225.573,214.422 227.5,218.5C 230.236,221.244 233.236,223.577 236.5,225.5C 227.032,223.353 222.366,217.353 222.5,207.5C 217.821,207.666 213.155,207.499 208.5,207C 204.386,206.885 200.719,205.718 197.5,203.5 Z"/></g>
<g><path style="opacity:0.129" fill="#f7d0ac" d="M 257.5,209.5 C 267.167,209.5 276.833,209.5 286.5,209.5C 277.342,210.33 268.009,210.83 258.5,211C 257.594,212.699 257.261,214.533 257.5,216.5C 256.549,215.081 256.216,213.415 256.5,211.5C 256.833,210.833 257.167,210.167 257.5,209.5 Z"/></g>
<g><path style="opacity:1" fill="#072c43" d="M 225.5,232.5 C 225.688,236.064 226.688,239.397 228.5,242.5C 232.207,245.576 235.207,249.242 237.5,253.5C 234.869,255.005 235.203,255.671 238.5,255.5C 239.451,260.78 242.451,264.113 247.5,265.5C 245.104,266.926 245.437,268.26 248.5,269.5C 250.214,268.391 250.881,269.058 250.5,271.5C 248.167,271.5 245.833,271.5 243.5,271.5C 243.391,268.466 242.057,267.466 239.5,268.5C 241.005,269.842 241.672,271.508 241.5,273.5C 245.117,273.773 246.783,275.44 246.5,278.5C 247.386,277.675 247.719,276.675 247.5,275.5C 250.167,274.833 252.833,274.167 255.5,273.5C 255.227,275.451 255.893,276.951 257.5,278C 256.167,278.333 254.833,278.667 253.5,279C 252.397,282.436 250.064,284.436 246.5,285C 245.062,286.569 243.562,288.069 242,289.5C 241.612,288.572 240.945,287.905 240,287.5C 238.31,288.149 236.477,288.149 234.5,287.5C 233.096,283.991 231.429,280.658 229.5,277.5C 226.833,277.5 224.167,277.5 221.5,277.5C 217.826,274.158 214.492,270.492 211.5,266.5C 211.64,264.876 210.973,263.71 209.5,263C 210.167,262.667 210.833,262.333 211.5,262C 209.368,261.082 208.701,259.749 209.5,258C 205.573,255.613 202.739,252.779 201,249.5C 200.586,249.957 200.086,250.291 199.5,250.5C 198.291,248.585 196.958,246.752 195.5,245C 196.022,244.05 196.689,243.216 197.5,242.5C 195.668,241.752 194.001,240.752 192.5,239.5C 190.008,242.131 187.674,241.965 185.5,239C 190.833,236.667 190.833,234.333 185.5,232C 187.473,231.505 189.473,231.338 191.5,231.5C 191.5,230.167 191.5,228.833 191.5,227.5C 188.5,227.833 187.167,226.5 187.5,223.5C 191.494,222.391 195.494,221.058 199.5,219.5C 197.49,218.935 195.824,217.935 194.5,216.5C 196.747,215.755 198.58,214.422 200,212.5C 202.577,213.271 205.077,214.271 207.5,215.5C 208.833,217.5 210.5,219.167 212.5,220.5C 213.527,225.236 216.027,228.903 220,231.5C 220.772,231.355 221.439,231.022 222,230.5C 222.333,231.833 222.667,233.167 223,234.5C 223.075,232.065 223.908,231.398 225.5,232.5 Z"/></g>
<g><path style="opacity:0.712" fill="#e99e60" d="M 253.5,203.5 C 250.202,207.831 247.869,212.664 246.5,218C 240.924,219.472 236.091,218.305 232,214.5C 231.51,213.207 231.343,211.873 231.5,210.5C 235.181,216.394 240.181,218.06 246.5,215.5C 247.314,213.234 247.814,210.9 248,208.5C 249.076,205.921 250.909,204.254 253.5,203.5 Z"/></g>
<g><path style="opacity:1" fill="#f38222" d="M 320.5,168.5 C 322.877,172.379 324.043,176.713 324,181.5C 326.439,183.629 328.939,185.629 331.5,187.5C 332.167,187.5 332.5,187.833 332.5,188.5C 332.923,191.647 333.256,194.814 333.5,198C 331.993,205.417 331.327,212.917 331.5,220.5C 331.5,220.833 331.5,221.167 331.5,221.5C 329.281,222.828 327.948,224.828 327.5,227.5C 324.133,228.958 320.799,230.624 317.5,232.5C 311.843,233.557 306.177,233.557 300.5,232.5C 297.833,230.827 295.833,228.493 294.5,225.5C 293.583,224.873 292.583,224.539 291.5,224.5C 291.5,224.167 291.5,223.833 291.5,223.5C 291.833,219.833 293.833,217.833 297.5,217.5C 297.833,217.5 298.167,217.5 298.5,217.5C 297.976,221.31 299.643,223.31 303.5,223.5C 303.414,224.496 303.748,225.329 304.5,226C 308.71,226.738 312.876,226.572 317,225.5C 318.03,225.164 318.53,224.497 318.5,223.5C 319.833,223.5 321.167,223.5 322.5,223.5C 322.955,220.797 323.622,218.13 324.5,215.5C 324.457,214.584 324.124,213.917 323.5,213.5C 316.988,212.833 310.321,212.167 303.5,211.5C 302.233,209.629 302.233,207.796 303.5,206C 310.167,205.667 316.833,205.333 323.5,205C 326.424,201.088 327.09,196.922 325.5,192.5C 325.461,191.417 325.127,190.417 324.5,189.5C 322.604,188.534 320.604,188.201 318.5,188.5C 318.5,192.5 316.5,194.5 312.5,194.5C 313.5,190.5 314.5,186.5 315.5,182.5C 316.117,182.389 316.617,182.056 317,181.5C 317.579,177.797 317.412,174.131 316.5,170.5C 315.5,170.5 314.5,170.5 313.5,170.5C 313.297,168.362 312.297,166.695 310.5,165.5C 310.887,164.28 311.72,163.613 313,163.5C 315.289,165.47 317.789,167.137 320.5,168.5 Z"/></g>
<g><path style="opacity:1" fill="#f38224" d="M 255.5,202.5 C 265.833,202.5 276.167,202.5 286.5,202.5C 286.5,202.833 286.5,203.167 286.5,203.5C 286.5,205.167 286.5,206.833 286.5,208.5C 276.652,208.173 266.986,208.506 257.5,209.5C 257.167,210.167 256.833,210.833 256.5,211.5C 254.364,216.92 256.364,220.086 262.5,221C 267.5,221.333 272.5,221.667 277.5,222C 278.933,224.705 280.933,226.871 283.5,228.5C 283.833,228.5 284.167,228.5 284.5,228.5C 285.031,230.624 286.365,232.124 288.5,233C 289.793,233.49 291.127,233.657 292.5,233.5C 291.916,236.285 292.916,237.952 295.5,238.5C 295.599,241.639 296.932,243.973 299.5,245.5C 300.406,248.436 301.072,251.436 301.5,254.5C 298.763,254.599 296.096,254.265 293.5,253.5C 293.715,251.821 293.048,250.821 291.5,250.5C 291.5,250.167 291.5,249.833 291.5,249.5C 291.969,246.607 290.969,244.607 288.5,243.5C 288.703,241.61 288.037,240.11 286.5,239C 283.928,236.713 280.928,235.547 277.5,235.5C 275.674,233.853 274.34,231.853 273.5,229.5C 269.688,228.676 265.688,228.176 261.5,228C 258.639,226.36 255.639,225.193 252.5,224.5C 251.726,223.853 250.726,223.52 249.5,223.5C 247.645,223.34 246.312,224.007 245.5,225.5C 242.5,225.5 239.5,225.5 236.5,225.5C 233.236,223.577 230.236,221.244 227.5,218.5C 229.017,218.511 230.184,219.177 231,220.5C 231.393,218.801 230.893,217.301 229.5,216C 230.287,213.901 230.62,211.734 230.5,209.5C 230.833,209.5 231.167,209.5 231.5,209.5C 231.5,209.833 231.5,210.167 231.5,210.5C 231.343,211.873 231.51,213.207 232,214.5C 236.091,218.305 240.924,219.472 246.5,218C 247.869,212.664 250.202,207.831 253.5,203.5C 253.842,202.662 254.508,202.328 255.5,202.5 Z"/></g>
<g><path style="opacity:0.369" fill="#eebc94" d="M 297.5,217.5 C 293.833,217.833 291.833,219.833 291.5,223.5C 290.031,220.898 290.698,218.731 293.5,217C 295.066,216.235 296.399,216.402 297.5,217.5 Z"/></g>
<g><path style="opacity:0.78" fill="#e9a46b" d="M 256.5,211.5 C 256.216,213.415 256.549,215.081 257.5,216.5C 258.683,217.504 260.016,218.338 261.5,219C 267.528,219.17 273.528,219.67 279.5,220.5C 280.86,223.22 282.193,225.886 283.5,228.5C 280.933,226.871 278.933,224.705 277.5,222C 272.5,221.667 267.5,221.333 262.5,221C 256.364,220.086 254.364,216.92 256.5,211.5 Z"/></g>
<g><path style="opacity:0.973" fill="#edb480" d="M 298.5,217.5 C 300.156,219.46 301.823,221.46 303.5,223.5C 299.643,223.31 297.976,221.31 298.5,217.5 Z"/></g>
<g><path style="opacity:1" fill="#eba163" d="M 323.5,213.5 C 324.124,213.917 324.457,214.584 324.5,215.5C 323.622,218.13 322.955,220.797 322.5,223.5C 321.167,223.5 319.833,223.5 318.5,223.5C 320.94,220.957 322.606,217.957 323.5,214.5C 323.5,214.167 323.5,213.833 323.5,213.5 Z"/></g>
<g><path style="opacity:0.482" fill="#e2a66d" d="M 252.5,224.5 C 250.236,225.219 247.903,225.552 245.5,225.5C 246.312,224.007 247.645,223.34 249.5,223.5C 250.726,223.52 251.726,223.853 252.5,224.5 Z"/></g>
<g><path style="opacity:0.204" fill="#e4b795" d="M 236.5,225.5 C 239.5,225.5 242.5,225.5 245.5,225.5C 242.579,227.769 239.579,227.769 236.5,225.5 Z"/></g>
<g><path style="opacity:0.992" fill="#eaaa70" d="M 291.5,224.5 C 292.583,224.539 293.583,224.873 294.5,225.5C 295.833,228.493 297.833,230.827 300.5,232.5C 296.254,231.255 293.254,228.588 291.5,224.5 Z"/></g>
<g><path style="opacity:0.541" fill="#f2b881" d="M 303.5,223.5 C 308.495,226.165 313.495,226.165 318.5,223.5C 318.53,224.497 318.03,225.164 317,225.5C 312.876,226.572 308.71,226.738 304.5,226C 303.748,225.329 303.414,224.496 303.5,223.5 Z"/></g>
<g><path style="opacity:0.565" fill="#e3a778" d="M 331.5,221.5 C 331.155,224.198 329.822,226.198 327.5,227.5C 327.948,224.828 329.281,222.828 331.5,221.5 Z"/></g>
<g><path style="opacity:0.161" fill="#e5a973" d="M 252.5,224.5 C 255.639,225.193 258.639,226.36 261.5,228C 265.688,228.176 269.688,228.676 273.5,229.5C 268.821,229.666 264.155,229.499 259.5,229C 256.659,228.16 254.325,226.66 252.5,224.5 Z"/></g>
<g><path style="opacity:0.122" fill="#e6b990" d="M 284.5,228.5 C 287.21,230.232 289.876,231.899 292.5,233.5C 291.127,233.657 289.793,233.49 288.5,233C 286.365,232.124 285.031,230.624 284.5,228.5 Z"/></g>
<g><path style="opacity:0.996" fill="#e8a064" d="M 327.5,227.5 C 321.503,234.471 313.836,236.971 304.5,235C 302.934,234.392 301.6,233.558 300.5,232.5C 306.177,233.557 311.843,233.557 317.5,232.5C 320.799,230.624 324.133,228.958 327.5,227.5 Z"/></g>
<g><path style="opacity:0.976" fill="#eda473" d="M 292.5,233.5 C 294.25,234.659 295.25,236.326 295.5,238.5C 292.916,237.952 291.916,236.285 292.5,233.5 Z"/></g>
<g><path style="opacity:0.969" fill="#e79f61" d="M 277.5,235.5 C 280.928,235.547 283.928,236.713 286.5,239C 288.037,240.11 288.703,241.61 288.5,243.5C 284.81,240.801 281.143,238.135 277.5,235.5 Z"/></g>
<g><path style="opacity:0.29" fill="#7e929b" d="M 319.5,238.5 C 314.044,239.731 308.71,241.064 303.5,242.5C 301.896,241.713 301.229,240.38 301.5,238.5C 307.5,239.833 313.5,239.833 319.5,238.5 Z"/></g>
<g><path style="opacity:0.925" fill="#ecaa76" d="M 295.5,238.5 C 297.588,240.336 298.921,242.669 299.5,245.5C 296.932,243.973 295.599,241.639 295.5,238.5 Z"/></g>
<g><path style="opacity:0.42" fill="#e2a578" d="M 288.5,243.5 C 290.969,244.607 291.969,246.607 291.5,249.5C 290.508,247.544 289.508,245.544 288.5,243.5 Z"/></g>
<g><path style="opacity:1" fill="#153147" d="M 225.5,232.5 C 233.801,241.305 241.968,250.305 250,259.5C 250.383,258.944 250.883,258.611 251.5,258.5C 253.262,257.738 254.262,256.404 254.5,254.5C 257.71,250.079 261.377,246.079 265.5,242.5C 267.587,241.415 268.92,239.749 269.5,237.5C 269.783,236.711 270.283,236.044 271,235.5C 274.552,238.719 278.385,241.552 282.5,244C 285.744,247.655 288.078,251.822 289.5,256.5C 289.61,260.61 288.61,264.277 286.5,267.5C 279.961,275.915 272.961,283.915 265.5,291.5C 265.36,289.876 266.027,288.71 267.5,288C 267.167,287.667 266.833,287.333 266.5,287C 268.131,285.908 269.798,285.075 271.5,284.5C 271.016,281.202 272.016,278.536 274.5,276.5C 273.223,270.828 273.223,265.161 274.5,259.5C 271.901,259.451 269.734,258.451 268,256.5C 265.749,257.038 263.582,257.205 261.5,257C 262.865,255.318 264.365,255.151 266,256.5C 267.252,253.986 267.752,251.32 267.5,248.5C 266.448,248.351 265.448,248.517 264.5,249C 262.772,253.907 259.438,256.741 254.5,257.5C 254.509,259.308 254.009,260.975 253,262.5C 250.164,262.627 247.33,261.961 244.5,260.5C 244.883,257.538 243.883,256.538 241.5,257.5C 240.833,256.5 240.167,255.5 239.5,254.5C 238.893,254.624 238.56,254.957 238.5,255.5C 235.203,255.671 234.869,255.005 237.5,253.5C 235.207,249.242 232.207,245.576 228.5,242.5C 226.688,239.397 225.688,236.064 225.5,232.5 Z"/></g>
<g><path style="opacity:0.267" fill="#919ea8" d="M 269.5,237.5 C 268.92,239.749 267.587,241.415 265.5,242.5C 266.08,240.251 267.413,238.585 269.5,237.5 Z"/></g>
<g><path style="opacity:0.42" fill="#f1c8a8" d="M 291.5,250.5 C 293.048,250.821 293.715,251.821 293.5,253.5C 292.599,252.71 291.932,251.71 291.5,250.5 Z"/></g>
<g><path style="opacity:0.992" fill="#657581" d="M 308.5,251.5 C 309.5,251.5 310.5,251.5 311.5,251.5C 311.5,253.167 311.5,254.833 311.5,256.5C 310.36,254.955 309.36,253.288 308.5,251.5 Z"/></g>
<g><path style="opacity:0.714" fill="#ebad74" d="M 299.5,245.5 C 302.367,248.233 303.867,251.566 304,255.5C 301.263,256.61 298.429,256.777 295.5,256C 294.619,255.292 293.953,254.458 293.5,253.5C 296.096,254.265 298.763,254.599 301.5,254.5C 301.072,251.436 300.406,248.436 299.5,245.5 Z"/></g>
<g><path style="opacity:0.916" fill="#5b6973" d="M 289.5,256.5 C 290.652,257.834 291.652,259.334 292.5,261C 291.015,263.652 289.015,265.818 286.5,267.5C 288.61,264.277 289.61,260.61 289.5,256.5 Z"/></g>
<g><path style="opacity:0.004" fill="#fefffe" d="M 303.5,258.5 C 304.833,259.167 304.833,259.167 303.5,258.5 Z"/></g>
<g><path style="opacity:1" fill="#062b43" d="M 265.5,291.5 C 263.738,291.643 262.071,291.309 260.5,290.5C 259.167,286.833 259.167,283.167 260.5,279.5C 263.208,275.522 266.375,274.855 270,277.5C 271.149,274.607 271.649,271.607 271.5,268.5C 267.757,268.541 267.59,267.874 271,266.5C 271.688,265.668 271.521,265.002 270.5,264.5C 266.115,266.014 261.782,267.68 257.5,269.5C 256.738,268.372 256.071,267.205 255.5,266C 252.729,265.058 250.062,264.892 247.5,265.5C 242.451,264.113 239.451,260.78 238.5,255.5C 238.56,254.957 238.893,254.624 239.5,254.5C 240.167,255.5 240.833,256.5 241.5,257.5C 243.883,256.538 244.883,257.538 244.5,260.5C 247.33,261.961 250.164,262.627 253,262.5C 254.009,260.975 254.509,259.308 254.5,257.5C 259.438,256.741 262.772,253.907 264.5,249C 265.448,248.517 266.448,248.351 267.5,248.5C 267.752,251.32 267.252,253.986 266,256.5C 264.365,255.151 262.865,255.318 261.5,257C 263.582,257.205 265.749,257.038 268,256.5C 269.734,258.451 271.901,259.451 274.5,259.5C 273.223,265.161 273.223,270.828 274.5,276.5C 272.016,278.536 271.016,281.202 271.5,284.5C 269.798,285.075 268.131,285.908 266.5,287C 266.833,287.333 267.167,287.667 267.5,288C 266.027,288.71 265.36,289.876 265.5,291.5 Z"/></g>
<g><path style="opacity:0.239" fill="#89959b" d="M 254.5,254.5 C 254.262,256.404 253.262,257.738 251.5,258.5C 251.738,256.596 252.738,255.262 254.5,254.5 Z"/></g>
<g><path style="opacity:1" fill="#0b2c41" d="M 332.5,272.5 C 331.813,261.295 331.147,249.962 330.5,238.5C 331.691,233.967 330.691,233.467 327.5,237C 327.239,248.289 327.572,259.622 328.5,271C 327.718,273.74 327.218,276.574 327,279.5C 324.36,266.462 323.86,253.296 325.5,240C 324.551,239.383 323.718,239.549 323,240.5C 322.555,261.413 323.055,282.246 324.5,303C 323.552,303.483 322.552,303.649 321.5,303.5C 321.667,291.495 321.5,279.495 321,267.5C 315.989,268.984 310.489,270.151 304.5,271C 303.511,284.087 303.177,297.254 303.5,310.5C 301.515,294.2 300.848,277.534 301.5,260.5C 305.514,260.666 309.514,260.499 313.5,260C 312.695,258.887 312.028,257.721 311.5,256.5C 311.5,254.833 311.5,253.167 311.5,251.5C 310.5,251.5 309.5,251.5 308.5,251.5C 306.404,248.738 304.738,245.738 303.5,242.5C 308.71,241.064 314.044,239.731 319.5,238.5C 322.128,237.186 324.795,235.853 327.5,234.5C 328.807,233.847 330.14,233.18 331.5,232.5C 332.499,245.817 332.833,259.15 332.5,272.5 Z"/></g>
<g><path style="opacity:1" fill="#0f2e45" d="M 265.5,291.5 C 261.19,296.814 256.857,302.148 252.5,307.5C 250.766,308.562 249.099,308.562 247.5,307.5C 245.413,306.415 244.08,304.749 243.5,302.5C 243.167,301.5 242.5,300.833 241.5,300.5C 237.124,297.126 233.458,293.126 230.5,288.5C 230.573,286.973 229.906,285.973 228.5,285.5C 225.502,283.497 223.169,280.83 221.5,277.5C 224.167,277.5 226.833,277.5 229.5,277.5C 231.429,280.658 233.096,283.991 234.5,287.5C 236.477,288.149 238.31,288.149 240,287.5C 240.945,287.905 241.612,288.572 242,289.5C 243.562,288.069 245.062,286.569 246.5,285C 250.064,284.436 252.397,282.436 253.5,279C 254.833,278.667 256.167,278.333 257.5,278C 255.893,276.951 255.227,275.451 255.5,273.5C 252.833,274.167 250.167,274.833 247.5,275.5C 247.719,276.675 247.386,277.675 246.5,278.5C 246.783,275.44 245.117,273.773 241.5,273.5C 241.672,271.508 241.005,269.842 239.5,268.5C 242.057,267.466 243.391,268.466 243.5,271.5C 245.833,271.5 248.167,271.5 250.5,271.5C 250.881,269.058 250.214,268.391 248.5,269.5C 245.437,268.26 245.104,266.926 247.5,265.5C 250.062,264.892 252.729,265.058 255.5,266C 256.071,267.205 256.738,268.372 257.5,269.5C 261.782,267.68 266.115,266.014 270.5,264.5C 271.521,265.002 271.688,265.668 271,266.5C 267.59,267.874 267.757,268.541 271.5,268.5C 271.649,271.607 271.149,274.607 270,277.5C 266.375,274.855 263.208,275.522 260.5,279.5C 259.167,283.167 259.167,286.833 260.5,290.5C 262.071,291.309 263.738,291.643 265.5,291.5 Z"/></g>
<g><path style="opacity:1" fill="#062b42" d="M 332.5,272.5 C 332.5,285.167 332.5,297.833 332.5,310.5C 322.833,310.5 313.167,310.5 303.5,310.5C 303.177,297.254 303.511,284.087 304.5,271C 310.489,270.151 315.989,268.984 321,267.5C 321.5,279.495 321.667,291.495 321.5,303.5C 322.552,303.649 323.552,303.483 324.5,303C 323.055,282.246 322.555,261.413 323,240.5C 323.718,239.549 324.551,239.383 325.5,240C 323.86,253.296 324.36,266.462 327,279.5C 327.218,276.574 327.718,273.74 328.5,271C 327.572,259.622 327.239,248.289 327.5,237C 330.691,233.467 331.691,233.967 330.5,238.5C 331.147,249.962 331.813,261.295 332.5,272.5 Z"/></g>
<g><path style="opacity:0.784" fill="#3c5160" d="M 301.5,260.5 C 300.848,277.534 301.515,294.2 303.5,310.5C 313.167,310.5 322.833,310.5 332.5,310.5C 332.5,297.833 332.5,285.167 332.5,272.5C 332.833,259.15 332.499,245.817 331.5,232.5C 330.14,233.18 328.807,233.847 327.5,234.5C 329.091,232.563 330.758,230.563 332.5,228.5C 333.5,256.159 333.833,283.825 333.5,311.5C 322.5,311.5 311.5,311.5 300.5,311.5C 300.17,294.325 300.503,277.325 301.5,260.5 Z"/></g>
<g><path style="opacity:0.024" fill="#a8abab" d="M 199.5,252.5 C 198.833,272.167 198.167,291.833 197.5,311.5C 197.5,311.167 197.5,310.833 197.5,310.5C 197.167,290.822 197.5,271.155 198.5,251.5C 199.107,251.624 199.44,251.957 199.5,252.5 Z"/></g>
<g><path style="opacity:0.008" fill="#c6cdd0" d="M 228.5,285.5 C 229.906,285.973 230.573,286.973 230.5,288.5C 229.094,288.027 228.427,287.027 228.5,285.5 Z"/></g>
<g><path style="opacity:0.004" fill="#c7cfd3" d="M 241.5,300.5 C 242.5,300.833 243.167,301.5 243.5,302.5C 242.167,302.5 241.5,301.833 241.5,300.5 Z"/></g>
<g><path style="opacity:0.212" fill="#a0a5b2" d="M 247.5,307.5 C 249.099,308.562 250.766,308.562 252.5,307.5C 250.704,310.048 249.038,310.048 247.5,307.5 Z"/></g>
<g><path style="opacity:0.463" fill="#84919a" d="M 236.5,343.5 C 238.948,342.527 241.615,342.194 244.5,342.5C 244.5,340.833 244.5,339.167 244.5,337.5C 237.5,337.5 230.5,337.5 223.5,337.5C 223.5,339.167 223.5,340.833 223.5,342.5C 226.059,342.198 228.393,342.532 230.5,343.5C 227.833,343.5 225.167,343.5 222.5,343.5C 222.5,341.167 222.5,338.833 222.5,336.5C 230.167,336.5 237.833,336.5 245.5,336.5C 245.5,338.833 245.5,341.167 245.5,343.5C 242.5,343.5 239.5,343.5 236.5,343.5 Z"/></g>
<g><path style="opacity:0.341" fill="#eab78c" d="M 316.5,343.5 C 315.5,342.167 314.5,342.167 313.5,343.5C 313.082,342.778 312.416,342.278 311.5,342C 312.198,341.029 312.198,339.863 311.5,338.5C 313.102,334.449 315.602,333.782 319,336.5C 320.084,339.659 319.25,341.992 316.5,343.5 Z"/></g>
<g><path style="opacity:1" fill="#e9852d" d="M 313.5,336.5 C 317.676,335.831 319.009,337.331 317.5,341C 316.207,341.49 314.873,341.657 313.5,341.5C 313.5,339.833 313.5,338.167 313.5,336.5 Z"/></g>
<g><path style="opacity:0.239" fill="#7d8b91" d="M 195.5,338.5 C 196.451,339.919 196.784,341.585 196.5,343.5C 198.415,343.216 200.081,343.549 201.5,344.5C 199.5,344.5 197.5,344.5 195.5,344.5C 195.5,342.5 195.5,340.5 195.5,338.5 Z"/></g>
<g><path style="opacity:0.306" fill="#8fa1a9" d="M 209.5,335.5 C 210.473,337.948 210.806,340.615 210.5,343.5C 213.713,343.19 216.713,343.523 219.5,344.5C 216.167,344.5 212.833,344.5 209.5,344.5C 209.5,341.5 209.5,338.5 209.5,335.5 Z"/></g>
<g><path style="opacity:0.416" fill="#8ea0aa" d="M 155.5,336.5 C 157.265,335.539 159.265,335.205 161.5,335.5C 161.5,345.167 161.5,354.833 161.5,364.5C 159.167,364.5 156.833,364.5 154.5,364.5C 154.747,361.061 154.414,357.728 153.5,354.5C 153.281,353.325 153.614,352.325 154.5,351.5C 155.491,355.445 155.824,359.445 155.5,363.5C 157.167,363.5 158.833,363.5 160.5,363.5C 160.5,354.5 160.5,345.5 160.5,336.5C 158.833,336.5 157.167,336.5 155.5,336.5 Z"/></g>
<g><path style="opacity:1" fill="#173246" d="M 148.5,349.5 C 149.906,349.027 150.573,348.027 150.5,346.5C 150.5,346.167 150.5,345.833 150.5,345.5C 151.906,345.027 152.573,344.027 152.5,342.5C 152.461,339.911 153.461,337.911 155.5,336.5C 157.167,336.5 158.833,336.5 160.5,336.5C 160.5,345.5 160.5,354.5 160.5,363.5C 158.833,363.5 157.167,363.5 155.5,363.5C 155.824,359.445 155.491,355.445 154.5,351.5C 153.614,352.325 153.281,353.325 153.5,354.5C 152.207,355.842 151.374,357.509 151,359.5C 148.861,360.769 146.695,360.769 144.5,359.5C 143.212,357.261 142.212,354.928 141.5,352.5C 141.631,351.624 141.298,350.957 140.5,350.5C 139.508,354.783 139.174,359.116 139.5,363.5C 137.5,363.5 135.5,363.5 133.5,363.5C 133.5,354.167 133.5,344.833 133.5,335.5C 135.857,335.337 138.19,335.503 140.5,336C 142.621,341.029 145.121,345.862 148,350.5C 148.399,350.272 148.565,349.938 148.5,349.5 Z"/></g>
<g><path style="opacity:0.239" fill="#82a3ae" d="M 152.5,342.5 C 152.573,344.027 151.906,345.027 150.5,345.5C 150.427,343.973 151.094,342.973 152.5,342.5 Z"/></g>
<g><path style="opacity:1" fill="#0e2c41" d="M 207.5,335.5 C 208.167,335.5 208.833,335.5 209.5,335.5C 209.5,338.5 209.5,341.5 209.5,344.5C 212.833,344.5 216.167,344.5 219.5,344.5C 221.25,345.659 222.25,347.326 222.5,349.5C 222.5,354.167 222.5,358.833 222.5,363.5C 220.833,363.5 219.167,363.5 217.5,363.5C 218.097,358.706 217.43,354.373 215.5,350.5C 214.947,348.448 213.947,348.115 212.5,349.5C 211.833,350.167 211.167,350.833 210.5,351.5C 209.517,355.298 209.183,359.298 209.5,363.5C 207.833,363.5 206.167,363.5 204.5,363.5C 204.5,354.5 204.5,345.5 204.5,336.5C 205.791,336.737 206.791,336.404 207.5,335.5 Z"/></g>
<g><path style="opacity:1" fill="#163146" d="M 260.5,346.5 C 260.427,348.027 261.094,349.027 262.5,349.5C 262.5,349.833 262.5,350.167 262.5,350.5C 262.5,352.167 262.5,353.833 262.5,355.5C 257.821,355.666 253.155,355.499 248.5,355C 249.167,354.333 249.833,353.667 250.5,353C 252.708,352.809 254.708,352.309 256.5,351.5C 256.5,350.833 256.167,350.5 255.5,350.5C 255.582,348.748 254.749,347.748 253,347.5C 251.97,347.836 251.47,348.503 251.5,349.5C 250.833,349.5 250.5,349.833 250.5,350.5C 248.488,352.133 246.821,354.133 245.5,356.5C 243.227,355.625 242.227,353.958 242.5,351.5C 243.984,346.184 247.484,343.184 253,342.5C 256.048,343.001 258.548,344.334 260.5,346.5 Z M 250.5,350.5 C 250.5,349.833 250.833,349.5 251.5,349.5C 251.833,349.5 252.167,349.5 252.5,349.5C 252.5,350.167 252.833,350.5 253.5,350.5C 252.652,351.625 251.652,351.625 250.5,350.5 Z"/></g>
<g><path style="opacity:1" fill="#f68323" d="M 307.5,354.5 C 307.5,357.5 307.5,360.5 307.5,363.5C 306.5,363.5 305.5,363.5 304.5,363.5C 303.739,355.996 302.572,348.662 301,341.5C 302.892,340.87 304.559,339.87 306,338.5C 306.173,344.016 306.673,349.349 307.5,354.5 Z"/></g>
<g><path style="opacity:0.196" fill="#89969e" d="M 189.5,343.5 C 187.338,345.169 187.005,347.169 188.5,349.5C 186.692,348.082 186.025,346.082 186.5,343.5C 187.5,343.5 188.5,343.5 189.5,343.5 Z"/></g>
<g><path style="opacity:1" fill="#102d43" d="M 236.5,343.5 C 236.5,350.167 236.5,356.833 236.5,363.5C 234.5,363.5 232.5,363.5 230.5,363.5C 230.5,356.833 230.5,350.167 230.5,343.5C 228.393,342.532 226.059,342.198 223.5,342.5C 223.5,340.833 223.5,339.167 223.5,337.5C 230.5,337.5 237.5,337.5 244.5,337.5C 244.5,339.167 244.5,340.833 244.5,342.5C 241.615,342.194 238.948,342.527 236.5,343.5 Z"/></g>
<g><path style="opacity:0.278" fill="#b5bbc4" d="M 260.5,346.5 C 261.906,346.973 262.573,347.973 262.5,349.5C 261.094,349.027 260.427,348.027 260.5,346.5 Z"/></g>
<g><path style="opacity:0.518" fill="#6e7f8b" d="M 280.5,343.5 C 280.5,344.167 280.5,344.833 280.5,345.5C 279.143,346.59 278.143,347.924 277.5,349.5C 277.286,347.856 277.62,346.356 278.5,345C 274.514,344.501 270.514,344.334 266.5,344.5C 266.5,350.833 266.5,357.167 266.5,363.5C 268.167,363.5 269.833,363.5 271.5,363.5C 271.5,363.833 271.5,364.167 271.5,364.5C 269.5,364.5 267.5,364.5 265.5,364.5C 265.323,357.667 265.323,350.667 265.5,343.5C 270.5,343.5 275.5,343.5 280.5,343.5 Z"/></g>
<g><path style="opacity:0.547" fill="#e4ad75" d="M 340.5,346.5 C 335.329,344.651 329.996,344.151 324.5,345C 323.525,350.741 323.192,356.575 323.5,362.5C 324.833,362.5 326.167,362.5 327.5,362.5C 327.185,358.629 327.518,354.962 328.5,351.5C 328.5,355.5 328.5,359.5 328.5,363.5C 326.5,363.5 324.5,363.5 322.5,363.5C 321.174,357.099 321.174,350.599 322.5,344C 327.915,342.797 333.248,342.797 338.5,344C 339.381,344.708 340.047,345.542 340.5,346.5 Z"/></g>
<g><path style="opacity:0.427" fill="#ebaf7b" d="M 359.5,337.5 C 359.5,339.833 359.5,342.167 359.5,344.5C 356.15,344.335 352.817,344.502 349.5,345C 348.29,346.039 347.29,347.206 346.5,348.5C 344.825,351.507 344.159,354.84 344.5,358.5C 342.214,347.117 346.881,342.117 358.5,343.5C 358.205,341.265 358.539,339.265 359.5,337.5 Z"/></g>
<g><path style="opacity:0.231" fill="#89a2aa" d="M 150.5,346.5 C 150.573,348.027 149.906,349.027 148.5,349.5C 148.427,347.973 149.094,346.973 150.5,346.5 Z"/></g>
<g><path style="opacity:1" fill="#1e3649" d="M 195.5,338.5 C 195.5,340.5 195.5,342.5 195.5,344.5C 197.5,344.5 199.5,344.5 201.5,344.5C 202.766,348.425 201.099,350.092 196.5,349.5C 196.5,352.5 196.5,355.5 196.5,358.5C 198.415,358.216 200.081,358.549 201.5,359.5C 201.5,360.833 201.5,362.167 201.5,363.5C 198.5,363.5 195.5,363.5 192.5,363.5C 191.542,363.047 190.708,362.381 190,361.5C 189.767,357.415 189.267,353.415 188.5,349.5C 187.005,347.169 187.338,345.169 189.5,343.5C 189.5,341.833 189.5,340.167 189.5,338.5C 191.691,337.709 193.691,337.709 195.5,338.5 Z"/></g>
<g><path style="opacity:0.235" fill="#8491a1" d="M 212.5,349.5 C 213.947,348.115 214.947,348.448 215.5,350.5C 214.609,349.89 213.609,349.557 212.5,349.5 Z"/></g>
<g><path style="opacity:1" fill="#1e374b" d="M 178.5,344.5 C 180.259,344.954 182.259,344.954 184.5,344.5C 184.5,350.833 184.5,357.167 184.5,363.5C 182.259,363.046 180.259,363.046 178.5,363.5C 175.696,364.638 172.696,364.805 169.5,364C 166.921,362.924 165.254,361.091 164.5,358.5C 164.191,354.295 164.857,350.295 166.5,346.5C 168.495,344.36 170.995,343.027 174,342.5C 175.622,343.099 177.122,343.766 178.5,344.5 Z M 169.5,353.5 C 170.906,353.027 171.573,352.027 171.5,350.5C 176.881,348.947 179.048,350.947 178,356.5C 174.082,359.14 171.249,358.14 169.5,353.5 Z"/></g>
<g><path style="opacity:1" fill="#f09547" d="M 307.5,354.5 C 306.673,349.349 306.173,344.016 306,338.5C 304.559,339.87 302.892,340.87 301,341.5C 302.572,348.662 303.739,355.996 304.5,363.5C 303.833,363.5 303.167,363.5 302.5,363.5C 301.523,360.713 301.19,357.713 301.5,354.5C 302.833,353.833 302.833,353.167 301.5,352.5C 300.609,353.11 299.609,353.443 298.5,353.5C 298.234,349.921 296.901,349.587 294.5,352.5C 292.914,350.827 292.247,348.827 292.5,346.5C 293.222,346.918 293.722,347.584 294,348.5C 296.666,345.824 298.833,342.824 300.5,339.5C 302.479,337.832 304.812,337.166 307.5,337.5C 307.5,343.167 307.5,348.833 307.5,354.5 Z"/></g>
<g><path style="opacity:0.42" fill="#798995" d="M 178.5,363.5 C 180.259,363.046 182.259,363.046 184.5,363.5C 184.5,357.167 184.5,350.833 184.5,344.5C 182.259,344.954 180.259,344.954 178.5,344.5C 180.717,343.631 183.05,343.298 185.5,343.5C 185.5,350.5 185.5,357.5 185.5,364.5C 183.05,364.702 180.717,364.369 178.5,363.5 Z"/></g>
<g><path style="opacity:1" fill="#ed852e" d="M 340.5,346.5 C 341.404,347.209 341.737,348.209 341.5,349.5C 341.5,354.167 341.5,358.833 341.5,363.5C 339.833,363.5 338.167,363.5 336.5,363.5C 336.666,359.154 336.499,354.821 336,350.5C 334.057,349.193 332.223,349.193 330.5,350.5C 329.508,350.328 328.842,350.662 328.5,351.5C 327.518,354.962 327.185,358.629 327.5,362.5C 326.167,362.5 324.833,362.5 323.5,362.5C 323.192,356.575 323.525,350.741 324.5,345C 329.996,344.151 335.329,344.651 340.5,346.5 Z"/></g>
<g><path style="opacity:0.247" fill="#a4afb9" d="M 166.5,346.5 C 164.857,350.295 164.191,354.295 164.5,358.5C 163.362,355.696 163.195,352.696 164,349.5C 164.236,347.881 165.069,346.881 166.5,346.5 Z"/></g>
<g><path style="opacity:0.027" fill="#b5b9bc" d="M 171.5,350.5 C 171.573,352.027 170.906,353.027 169.5,353.5C 169.427,351.973 170.094,350.973 171.5,350.5 Z"/></g>
<g><path style="opacity:0.325" fill="#e8ad79" d="M 330.5,350.5 C 332.223,349.193 334.057,349.193 336,350.5C 336.499,354.821 336.666,359.154 336.5,363.5C 338.167,363.5 339.833,363.5 341.5,363.5C 341.5,358.833 341.5,354.167 341.5,349.5C 342.487,354.305 342.821,359.305 342.5,364.5C 340.167,364.5 337.833,364.5 335.5,364.5C 335.666,360.486 335.499,356.486 335,352.5C 333.951,350.893 332.451,350.227 330.5,350.5 Z"/></g>
<g><path style="opacity:0.49" fill="#e39c61" d="M 359.5,363.5 C 361.167,363.5 362.833,363.5 364.5,363.5C 364.5,354.5 364.5,345.5 364.5,336.5C 362.833,336.5 361.167,336.5 359.5,336.5C 359.783,335.711 360.283,335.044 361,334.5C 362.356,335.38 363.856,335.714 365.5,335.5C 365.5,345.167 365.5,354.833 365.5,364.5C 363.265,364.795 361.265,364.461 359.5,363.5 Z"/></g>
<g><path style="opacity:0.024" fill="#e3e8ee" d="M 274.5,349.5 C 274.217,350.289 273.717,350.956 273,351.5C 272.825,356.019 272.325,360.353 271.5,364.5C 271.5,364.167 271.5,363.833 271.5,363.5C 271.334,359.154 271.501,354.821 272,350.5C 272.671,349.748 273.504,349.414 274.5,349.5 Z"/></g>
<g><path style="opacity:0.224" fill="#e5ac79" d="M 281.5,336.5 C 281.5,345.5 281.5,354.5 281.5,363.5C 283.167,363.5 284.833,363.5 286.5,363.5C 286.5,360.167 286.5,356.833 286.5,353.5C 286.833,353.5 287.167,353.5 287.5,353.5C 287.216,356.777 287.549,359.943 288.5,363C 286.063,364.375 283.397,364.875 280.5,364.5C 280.5,358.167 280.5,351.833 280.5,345.5C 280.5,344.833 280.5,344.167 280.5,343.5C 280.198,340.941 280.532,338.607 281.5,336.5 Z"/></g>
<g><path style="opacity:1" fill="#f38322" d="M 292.5,346.5 C 292.247,348.827 292.914,350.827 294.5,352.5C 296.901,349.587 298.234,349.921 298.5,353.5C 297.549,354.919 297.216,356.585 297.5,358.5C 295.5,358.5 293.5,358.5 291.5,358.5C 291.313,356.436 290.813,354.436 290,352.5C 289.023,351.226 288.189,351.226 287.5,352.5C 287.5,352.833 287.5,353.167 287.5,353.5C 287.167,353.5 286.833,353.5 286.5,353.5C 285.527,355.948 285.194,358.615 285.5,361.5C 284.5,361.5 283.5,361.5 282.5,361.5C 282.5,354.167 282.5,346.833 282.5,339.5C 287.272,338.603 289.605,340.603 289.5,345.5C 290.417,346.127 291.417,346.461 292.5,346.5 Z"/></g>
<g><path style="opacity:0.055" fill="#718894" d="M 141.5,352.5 C 140.675,356.647 140.175,360.981 140,365.5C 137.723,364.883 135.556,364.216 133.5,363.5C 135.5,363.5 137.5,363.5 139.5,363.5C 139.174,359.116 139.508,354.783 140.5,350.5C 141.298,350.957 141.631,351.624 141.5,352.5 Z"/></g>
<g><path style="opacity:0.243" fill="#8394a0" d="M 207.5,335.5 C 206.791,336.404 205.791,336.737 204.5,336.5C 204.5,345.5 204.5,354.5 204.5,363.5C 206.167,363.5 207.833,363.5 209.5,363.5C 209.183,359.298 209.517,355.298 210.5,351.5C 210.5,355.833 210.5,360.167 210.5,364.5C 208.167,364.5 205.833,364.5 203.5,364.5C 203.5,354.833 203.5,345.167 203.5,335.5C 204.833,335.5 206.167,335.5 207.5,335.5 Z"/></g>
<g><path style="opacity:1" fill="#54687a" d="M 255.5,350.5 C 256.167,350.5 256.5,350.833 256.5,351.5C 254.708,352.309 252.708,352.809 250.5,353C 249.833,353.667 249.167,354.333 248.5,355C 253.155,355.499 257.821,355.666 262.5,355.5C 262.5,353.833 262.5,352.167 262.5,350.5C 263.461,352.265 263.795,354.265 263.5,356.5C 261.901,356.232 260.568,356.566 259.5,357.5C 258.833,357.5 258.167,357.5 257.5,357.5C 255.636,356.207 253.636,356.207 251.5,357.5C 252.689,358.429 254.022,358.762 255.5,358.5C 253.058,359.182 250.558,359.515 248,359.5C 247.174,357.595 246.007,357.261 244.5,358.5C 245.127,359.417 245.461,360.417 245.5,361.5C 242.099,358.742 241.099,355.409 242.5,351.5C 242.227,353.958 243.227,355.625 245.5,356.5C 246.821,354.133 248.488,352.133 250.5,350.5C 251.652,351.625 252.652,351.625 253.5,350.5C 254.547,349.922 254.38,349.256 253,348.5C 252.601,348.728 252.435,349.062 252.5,349.5C 252.167,349.5 251.833,349.5 251.5,349.5C 251.47,348.503 251.97,347.836 253,347.5C 254.749,347.748 255.582,348.748 255.5,350.5 Z"/></g>
<g><path style="opacity:0.733" fill="#d89256" d="M 308.5,336.5 C 308.827,345.682 308.493,354.682 307.5,363.5C 307.5,360.5 307.5,357.5 307.5,354.5C 307.5,348.833 307.5,343.167 307.5,337.5C 304.812,337.166 302.479,337.832 300.5,339.5C 300.511,337.983 301.177,336.816 302.5,336C 304.712,335.211 306.712,335.378 308.5,336.5 Z"/></g>
<g><path style="opacity:1" fill="#e69348" d="M 346.5,348.5 C 344.106,358.737 348.106,363.737 358.5,363.5C 354.89,366.101 351.223,365.934 347.5,363C 345.859,361.871 344.859,360.371 344.5,358.5C 344.159,354.84 344.825,351.507 346.5,348.5 Z"/></g>
<g><path style="opacity:0.931" fill="#e58b3d" d="M 292.5,346.5 C 291.417,346.461 290.417,346.127 289.5,345.5C 289.605,340.603 287.272,338.603 282.5,339.5C 282.5,346.833 282.5,354.167 282.5,361.5C 283.5,361.5 284.5,361.5 285.5,361.5C 285.194,358.615 285.527,355.948 286.5,353.5C 286.5,356.833 286.5,360.167 286.5,363.5C 284.833,363.5 283.167,363.5 281.5,363.5C 281.5,354.5 281.5,345.5 281.5,336.5C 283.288,335.378 285.288,335.211 287.5,336C 289.579,339.324 291.246,342.824 292.5,346.5 Z"/></g>
<g><path style="opacity:1" fill="#ed862d" d="M 316.5,343.5 C 317.492,343.328 318.158,343.662 318.5,344.5C 318.5,350.833 318.5,357.167 318.5,363.5C 316.833,363.5 315.167,363.5 313.5,363.5C 313.5,356.833 313.5,350.167 313.5,343.5C 314.5,342.167 315.5,342.167 316.5,343.5 Z"/></g>
<g><path style="opacity:0.005" fill="#eff2f2" d="M 261.5,359.5 C 264.167,360.167 264.167,360.833 261.5,361.5C 261.5,360.833 261.5,360.167 261.5,359.5 Z"/></g>
<g><path style="opacity:0.357" fill="#efb27e" d="M 287.5,352.5 C 288.189,351.226 289.023,351.226 290,352.5C 290.813,354.436 291.313,356.436 291.5,358.5C 293.5,358.5 295.5,358.5 297.5,358.5C 297.216,356.585 297.549,354.919 298.5,353.5C 299.609,353.443 300.609,353.11 301.5,352.5C 301.5,353.167 301.5,353.833 301.5,354.5C 299.461,355.911 298.461,357.911 298.5,360.5C 296.143,360.663 293.81,360.497 291.5,360C 289.996,357.486 288.662,354.986 287.5,352.5 Z"/></g>
<g><path style="opacity:0.094" fill="#f7c4a5" d="M 330.5,350.5 C 329.559,355.07 329.226,359.737 329.5,364.5C 326.941,364.802 324.607,364.468 322.5,363.5C 324.5,363.5 326.5,363.5 328.5,363.5C 328.5,359.5 328.5,355.5 328.5,351.5C 328.842,350.662 329.508,350.328 330.5,350.5 Z"/></g>
<g><path style="opacity:0.994" fill="#1f384b" d="M 255.5,358.5 C 255.842,357.662 256.508,357.328 257.5,357.5C 258.167,357.5 258.833,357.5 259.5,357.5C 260.833,357.5 261.5,358.167 261.5,359.5C 261.5,360.167 261.5,360.833 261.5,361.5C 261.027,362.906 260.027,363.573 258.5,363.5C 255.167,363.5 251.833,363.5 248.5,363.5C 246.973,363.573 245.973,362.906 245.5,361.5C 245.461,360.417 245.127,359.417 244.5,358.5C 246.007,357.261 247.174,357.595 248,359.5C 250.558,359.515 253.058,359.182 255.5,358.5 Z"/></g>
<g><path style="opacity:0.992" fill="#0c2c41" d="M 277.5,349.5 C 276.798,350.116 275.798,350.116 274.5,349.5C 273.504,349.414 272.671,349.748 272,350.5C 271.501,354.821 271.334,359.154 271.5,363.5C 269.833,363.5 268.167,363.5 266.5,363.5C 266.5,357.167 266.5,350.833 266.5,344.5C 270.514,344.334 274.514,344.501 278.5,345C 277.62,346.356 277.286,347.856 277.5,349.5 Z"/></g>
<g><path style="opacity:0.075" fill="#f8d4a8" d="M 308.5,336.5 C 309.494,345.652 309.827,354.985 309.5,364.5C 306.941,364.802 304.607,364.468 302.5,363.5C 303.167,363.5 303.833,363.5 304.5,363.5C 305.5,363.5 306.5,363.5 307.5,363.5C 308.493,354.682 308.827,345.682 308.5,336.5 Z"/></g>
<g><path style="opacity:1" fill="#f18628" d="M 359.5,336.5 C 361.167,336.5 362.833,336.5 364.5,336.5C 364.5,345.5 364.5,354.5 364.5,363.5C 362.833,363.5 361.167,363.5 359.5,363.5C 359.167,363.5 358.833,363.5 358.5,363.5C 348.106,363.737 344.106,358.737 346.5,348.5C 347.29,347.206 348.29,346.039 349.5,345C 352.817,344.502 356.15,344.335 359.5,344.5C 359.5,342.167 359.5,339.833 359.5,337.5C 359.5,337.167 359.5,336.833 359.5,336.5 Z M 357.5,357.5 C 352.372,358.985 350.039,356.985 350.5,351.5C 351.721,350.972 352.887,350.305 354,349.5C 358.177,350.869 359.344,353.535 357.5,357.5 Z"/></g>
<g><path style="opacity:0.796" fill="#eca866" d="M 357.5,357.5 C 359.344,353.535 358.177,350.869 354,349.5C 352.887,350.305 351.721,350.972 350.5,351.5C 350.5,350.5 350.5,349.5 350.5,348.5C 353.602,348.154 356.435,348.821 359,350.5C 359.167,351.667 359.333,352.833 359.5,354C 359.392,355.681 358.725,356.848 357.5,357.5 Z"/></g>
<g><path style="opacity:0.459" fill="#82939c" d="M 201.5,359.5 C 202.451,360.919 202.784,362.585 202.5,364.5C 198.958,364.813 195.625,364.479 192.5,363.5C 195.5,363.5 198.5,363.5 201.5,363.5C 201.5,362.167 201.5,360.833 201.5,359.5 Z"/></g>
<g><path style="opacity:0.325" fill="#8c99a3" d="M 222.5,349.5 C 223.487,354.305 223.821,359.305 223.5,364.5C 221.167,364.5 218.833,364.5 216.5,364.5C 216.774,359.737 216.441,355.07 215.5,350.5C 217.43,354.373 218.097,358.706 217.5,363.5C 219.167,363.5 220.833,363.5 222.5,363.5C 222.5,358.833 222.5,354.167 222.5,349.5 Z"/></g>
<g><path style="opacity:0.339" fill="#979ea7" d="M 230.5,363.5 C 232.5,363.5 234.5,363.5 236.5,363.5C 234.444,364.216 232.277,364.883 230,365.5C 229.308,364.563 229.475,363.897 230.5,363.5 Z"/></g>
<g><path style="opacity:0.463" fill="#8698a3" d="M 248.5,363.5 C 251.833,363.5 255.167,363.5 258.5,363.5C 256.107,364.21 253.607,364.877 251,365.5C 250.005,364.934 249.172,364.267 248.5,363.5 Z"/></g>
<g><path style="opacity:0.31" fill="#e9b688" d="M 313.5,343.5 C 313.5,350.167 313.5,356.833 313.5,363.5C 315.167,363.5 316.833,363.5 318.5,363.5C 318.5,357.167 318.5,350.833 318.5,344.5C 319.818,351.011 319.818,357.678 318.5,364.5C 317.033,364.723 315.533,365.056 314,365.5C 312.866,361.847 312.366,358.014 312.5,354C 312.501,350.317 312.835,346.817 313.5,343.5 Z"/></g>
</svg>
