<?xml version="1.0" encoding="UTF-8"?>
<!DOCTYPE svg PUBLIC "-//W3C//DTD SVG 1.1//EN" "http://www.w3.org/Graphics/SVG/1.1/DTD/svg11.dtd">
<svg xmlns="http://www.w3.org/2000/svg" version="1.1" width="500px" height="500px" style="shape-rendering:geometricPrecision; text-rendering:geometricPrecision; image-rendering:optimizeQuality; fill-rule:evenodd; clip-rule:evenodd" xmlns:xlink="http://www.w3.org/1999/xlink">
<g><path style="opacity:0.525" fill="#818181" d="M 287.5,142.5 C 292.56,141.883 296.894,143.217 300.5,146.5C 296.161,144.811 291.828,143.477 287.5,142.5 Z"/></g>
<g><path style="opacity:0.988" fill="#e4e4e4" d="M 287.5,142.5 C 291.828,143.477 296.161,144.811 300.5,146.5C 304.746,149.353 307.746,153.353 309.5,158.5C 319.902,162.079 325.069,169.413 325,180.5C 330.567,183.954 333.9,188.954 335,195.5C 333.188,203.743 332.188,212.077 332,220.5C 331.16,224.5 328.994,227.5 325.5,229.5C 323.973,229.427 322.973,230.094 322.5,231.5C 322.5,232.167 322.167,232.5 321.5,232.5C 316.322,234.085 310.988,234.752 305.5,234.5C 300.237,233.306 295.903,230.639 292.5,226.5C 292.707,224.396 292.874,222.063 293,219.5C 294.113,218.695 295.279,218.028 296.5,217.5C 299.498,219.116 302.165,221.283 304.5,224C 312.961,227.34 319.294,224.84 323.5,216.5C 324.434,215.432 324.768,214.099 324.5,212.5C 319.968,212.182 315.634,212.515 311.5,213.5C 308.615,213.806 305.948,213.473 303.5,212.5C 302.659,210.621 302.325,208.621 302.5,206.5C 308.421,204.702 314.754,203.869 321.5,204C 326.583,199.73 326.75,195.23 322,190.5C 319.801,193.552 316.968,195.552 313.5,196.5C 310.226,195.737 308.726,193.737 309,190.5C 316.295,185.429 317.795,179.095 313.5,171.5C 310.854,168.495 307.854,167.995 304.5,170C 302.833,171.667 301.167,173.333 299.5,175C 296.961,175.796 294.628,175.629 292.5,174.5C 291.85,172.565 291.517,170.565 291.5,168.5C 293.378,166.3 295.711,164.633 298.5,163.5C 299.911,157.024 297.244,153.024 290.5,151.5C 287.674,152.482 286.34,154.482 286.5,157.5C 287.172,159.832 287.339,162.166 287,164.5C 286.25,165.126 285.416,165.626 284.5,166C 279.273,165.196 273.939,164.529 268.5,164C 266.435,157.213 269.102,154.046 276.5,154.5C 277.167,152.833 277.833,151.167 278.5,149.5C 275.516,145.012 271.349,143.012 266,143.5C 258.365,143.727 254.532,147.727 254.5,155.5C 252.5,156.833 250.5,156.833 248.5,155.5C 247.295,145.06 241.629,141.393 231.5,144.5C 224.799,148.374 223.799,153.374 228.5,159.5C 229.48,162.086 229.813,164.753 229.5,167.5C 221.517,167.695 217.017,163.695 216,155.5C 212.438,154.521 209.605,155.688 207.5,159C 212.218,160.449 213.718,163.615 212,168.5C 198.431,167.412 192.765,173.746 195,187.5C 197.836,192.648 202.002,195.981 207.5,197.5C 212.65,198.651 217.984,198.817 223.5,198C 224.416,197.722 225.082,197.222 225.5,196.5C 225.414,195.504 225.748,194.671 226.5,194C 228.993,191.92 231.659,190.086 234.5,188.5C 233.754,187.264 233.421,185.93 233.5,184.5C 233.5,183.5 233.5,182.5 233.5,181.5C 229.486,181.334 225.486,181.501 221.5,182C 222.044,182.717 222.711,183.217 223.5,183.5C 224.993,184.312 225.66,185.645 225.5,187.5C 223.431,193.103 220.431,193.77 216.5,189.5C 216.325,187.379 216.659,185.379 217.5,183.5C 216.645,182.469 215.978,181.303 215.5,180C 215.57,179.235 215.903,178.735 216.5,178.5C 222.167,178.5 227.833,178.5 233.5,178.5C 233.5,177.5 233.5,176.5 233.5,175.5C 233.925,170.971 236.092,167.637 240,165.5C 241.5,165.667 242.333,166.5 242.5,168C 240.462,170.57 238.795,173.404 237.5,176.5C 242.12,177.493 246.786,177.827 251.5,177.5C 249.904,173.255 247.904,169.255 245.5,165.5C 250.048,165.199 253.215,167.199 255,171.5C 254.979,175.899 257.145,178.233 261.5,178.5C 261.5,179.5 261.5,180.5 261.5,181.5C 260.167,181.5 258.833,181.5 257.5,181.5C 257.04,187.095 254.54,191.428 250,194.5C 248.72,194.387 247.887,193.72 247.5,192.5C 250.086,189.594 251.752,186.26 252.5,182.5C 247.36,181.512 242.026,181.179 236.5,181.5C 236.232,183.099 236.566,184.432 237.5,185.5C 238.479,187.739 240.146,189.406 242.5,190.5C 243.52,192.432 243.687,194.432 243,196.5C 234.521,197.47 230.688,202.137 231.5,210.5C 231.427,212.027 232.094,213.027 233.5,213.5C 237.333,217.543 241.666,218.21 246.5,215.5C 247.37,208.473 251.037,203.639 257.5,201C 266.833,200.333 276.167,200.333 285.5,201C 289.054,203.655 289.387,206.655 286.5,210C 276.839,210.5 267.172,210.666 257.5,210.5C 256.013,214.505 257.346,217.338 261.5,219C 267.167,219.333 272.833,219.667 278.5,220C 281.369,227.036 286.369,231.869 293.5,234.5C 297.678,241.314 301.345,248.314 304.5,255.5C 301.15,255.665 297.817,255.498 294.5,255C 291.889,251.015 289.556,246.848 287.5,242.5C 281.51,239.507 276.844,235.174 273.5,229.5C 268.654,228.673 263.654,228.006 258.5,227.5C 255.937,226.8 253.437,225.8 251,224.5C 240.283,228.306 231.45,225.806 224.5,217C 222.861,213.698 222.194,210.198 222.5,206.5C 196.341,210.496 184.174,199.496 186,173.5C 187.804,168.025 191.137,163.691 196,160.5C 198.966,149.594 206.132,144.427 217.5,145C 226.818,133.603 237.985,131.436 251,138.5C 258.264,133.715 266.098,132.548 274.5,135C 279.01,137.376 283.343,139.876 287.5,142.5 Z M 265.5,175.5 C 268.233,175.196 269.899,176.363 270.5,179C 268.286,183.28 266.286,183.28 264.5,179C 264.989,177.862 265.322,176.695 265.5,175.5 Z M 279.5,178.5 C 281.048,178.821 281.715,179.821 281.5,181.5C 278.752,181.598 278.086,180.598 279.5,178.5 Z M 219.5,187.5 C 220.077,186.227 220.743,186.227 221.5,187.5C 221.03,188.463 220.363,188.463 219.5,187.5 Z"/></g>
<g><path style="opacity:0.925" fill="#dedede" d="M 228.5,174.5 C 226.952,175.794 224.952,176.461 222.5,176.5C 220.048,176.461 218.048,175.794 216.5,174.5C 220.5,173.167 224.5,173.167 228.5,174.5 Z"/></g>
<g><path style="opacity:0.958" fill="#c3c0c0" d="M 261.5,181.5 C 261.5,180.5 261.5,179.5 261.5,178.5C 261.008,173.994 263.008,171.661 267.5,171.5C 274.846,173.637 276.346,177.97 272,184.5C 267.36,187.604 263.86,186.604 261.5,181.5 Z M 265.5,175.5 C 265.322,176.695 264.989,177.862 264.5,179C 266.286,183.28 268.286,183.28 270.5,179C 269.899,176.363 268.233,175.196 265.5,175.5 Z"/></g>
<g><path style="opacity:0.086" fill="#535353" d="M 291.5,168.5 C 291.517,170.565 291.85,172.565 292.5,174.5C 291.053,173.866 290.387,172.699 290.5,171C 290.528,169.93 290.861,169.097 291.5,168.5 Z"/></g>
<g><path style="opacity:0.543" fill="#7c7a7b" d="M 212.5,176.5 C 207.706,175.903 203.373,176.57 199.5,178.5C 198.596,177.791 198.263,176.791 198.5,175.5C 203.363,175.181 208.03,175.514 212.5,176.5 Z"/></g>
<g><path style="opacity:0.961" fill="#d5d5d5" d="M 284.5,175.5 C 285.132,178.362 286.132,181.196 287.5,184C 286.91,185.299 285.91,186.132 284.5,186.5C 282.595,185.848 280.595,185.681 278.5,186C 275.959,184.152 274.959,181.652 275.5,178.5C 276.815,177.524 278.148,176.524 279.5,175.5C 281.199,176.815 282.865,176.815 284.5,175.5 Z M 279.5,178.5 C 278.086,180.598 278.752,181.598 281.5,181.5C 281.715,179.821 281.048,178.821 279.5,178.5 Z"/></g>
<g><path style="opacity:0.514" fill="#6f6f6f" d="M 284.5,175.5 C 282.865,176.815 281.199,176.815 279.5,175.5C 278.148,176.524 276.815,177.524 275.5,178.5C 275.511,176.983 276.177,175.816 277.5,175C 280.188,174.821 282.522,174.988 284.5,175.5 Z"/></g>
<g><path style="opacity:0.971" fill="#c4c3c3" d="M 212.5,176.5 C 213.036,178.43 213.036,180.597 212.5,183C 208.167,183.667 203.833,183.667 199.5,183C 198.272,181.51 198.272,180.01 199.5,178.5C 203.373,176.57 207.706,175.903 212.5,176.5 Z"/></g>
<g><path style="opacity:0.192" fill="#929192" d="M 216.5,174.5 C 218.048,175.794 220.048,176.461 222.5,176.5C 224.952,176.461 226.952,175.794 228.5,174.5C 229.404,175.209 229.737,176.209 229.5,177.5C 231.199,177.473 232.533,176.806 233.5,175.5C 233.5,176.5 233.5,177.5 233.5,178.5C 227.833,178.5 222.167,178.5 216.5,178.5C 215.314,177.039 215.314,175.705 216.5,174.5 Z"/></g>
<g><path style="opacity:0.231" fill="#515151" d="M 233.5,184.5 C 230.312,182.343 226.979,182.01 223.5,183.5C 222.711,183.217 222.044,182.717 221.5,182C 225.486,181.501 229.486,181.334 233.5,181.5C 233.5,182.5 233.5,183.5 233.5,184.5 Z"/></g>
<g><path style="opacity:0.257" fill="#5a595a" d="M 252.5,182.5 C 247.5,182.5 242.5,182.5 237.5,182.5C 237.5,183.5 237.5,184.5 237.5,185.5C 236.566,184.432 236.232,183.099 236.5,181.5C 242.026,181.179 247.36,181.512 252.5,182.5 Z"/></g>
<g><path style="opacity:0.988" fill="#e7e7e7" d="M 296.5,182.5 C 299.695,181.961 302.195,182.961 304,185.5C 304.978,189.9 304.478,194.067 302.5,198C 295.735,200.406 293.068,197.906 294.5,190.5C 294.621,187.559 295.287,184.892 296.5,182.5 Z"/></g>
<g><path style="opacity:0.188" fill="#454245" d="M 217.5,183.5 C 216.659,185.379 216.325,187.379 216.5,189.5C 215.853,188.726 215.52,187.726 215.5,186.5C 215.64,184.97 216.307,183.97 217.5,183.5 Z"/></g>
<g><path style="opacity:0.997" fill="#f9f9f9" d="M 200.5,209.5 C 202.32,211.461 204.32,211.794 206.5,210.5C 220.763,226.937 235.263,243.27 250,259.5C 254.699,253.971 259.532,248.638 264.5,243.5C 267.118,241.548 269.452,239.215 271.5,236.5C 276.059,239.702 280.559,243.036 285,246.5C 287.38,251.427 289.88,256.261 292.5,261C 289.944,264.719 286.944,267.886 283.5,270.5C 282.094,270.973 281.427,271.973 281.5,273.5C 271.523,285.147 261.523,296.814 251.5,308.5C 250.167,309.833 248.833,309.833 247.5,308.5C 246.156,306.471 244.823,304.471 243.5,302.5C 243.144,300.81 242.144,299.81 240.5,299.5C 226.17,283.668 212.003,267.668 198,251.5C 197.5,271.497 197.333,291.497 197.5,311.5C 186.833,311.5 176.167,311.5 165.5,311.5C 165.5,272.167 165.5,232.833 165.5,193.5C 171.176,193.334 176.843,193.501 182.5,194C 186.872,201.216 192.872,206.383 200.5,209.5 Z"/></g>
<g><path style="opacity:0.531" fill="#9f9f9f" d="M 225.5,196.5 C 225.082,197.222 224.416,197.722 223.5,198C 217.984,198.817 212.65,198.651 207.5,197.5C 213.516,197.407 219.516,197.074 225.5,196.5 Z"/></g>
<g><path style="opacity:0.251" fill="#545454" d="M 302.5,206.5 C 302.325,208.621 302.659,210.621 303.5,212.5C 302.307,212.03 301.64,211.03 301.5,209.5C 301.52,208.274 301.853,207.274 302.5,206.5 Z"/></g>
<g><path style="opacity:0.373" fill="#565656" d="M 200.5,209.5 C 202.5,209.833 204.5,210.167 206.5,210.5C 204.32,211.794 202.32,211.461 200.5,209.5 Z"/></g>
<g><path style="opacity:0.125" fill="#535353" d="M 231.5,210.5 C 232.906,210.973 233.573,211.973 233.5,213.5C 232.094,213.027 231.427,212.027 231.5,210.5 Z"/></g>
<g><path style="opacity:0.483" fill="#8c8c8c" d="M 311.5,213.5 C 315.634,212.515 319.968,212.182 324.5,212.5C 324.768,214.099 324.434,215.432 323.5,216.5C 323.5,215.5 323.5,214.5 323.5,213.5C 319.5,213.5 315.5,213.5 311.5,213.5 Z"/></g>
<g><path style="opacity:0.737" fill="#9f9f9f" d="M 296.5,217.5 C 295.279,218.028 294.113,218.695 293,219.5C 292.874,222.063 292.707,224.396 292.5,226.5C 289.443,222.001 290.443,218.668 295.5,216.5C 296.107,216.624 296.44,216.957 296.5,217.5 Z"/></g>
<g><path style="opacity:0.149" fill="#383838" d="M 258.5,227.5 C 263.654,228.006 268.654,228.673 273.5,229.5C 269.154,229.666 264.821,229.499 260.5,229C 259.584,228.722 258.918,228.222 258.5,227.5 Z"/></g>
<g><path style="opacity:0.995" fill="#f7f7f7" d="M 331.5,228.5 C 333.492,255.813 334.158,283.48 333.5,311.5C 322.813,311.832 312.146,311.499 301.5,310.5C 301.291,309.914 300.957,309.414 300.5,309C 300.646,292.924 300.646,276.758 300.5,260.5C 305.179,260.666 309.845,260.499 314.5,260C 309.617,253.596 305.284,246.763 301.5,239.5C 306.711,239.49 312.044,239.323 317.5,239C 321.112,237.861 324.446,236.194 327.5,234C 329.464,232.549 330.797,230.716 331.5,228.5 Z"/></g>
<g><path style="opacity:0.02" fill="#555555" d="M 325.5,229.5 C 325.027,230.906 324.027,231.573 322.5,231.5C 322.973,230.094 323.973,229.427 325.5,229.5 Z"/></g>
<g><path style="opacity:0.161" fill="#818181" d="M 321.5,232.5 C 316.437,235.505 311.104,236.172 305.5,234.5C 310.988,234.752 316.322,234.085 321.5,232.5 Z"/></g>
<g><path style="opacity:0.424" fill="#7d7d7d" d="M 271.5,236.5 C 269.452,239.215 267.118,241.548 264.5,243.5C 265.855,240.145 268.189,237.811 271.5,236.5 Z"/></g>
<g><path style="opacity:0.02" fill="#565656" d="M 283.5,270.5 C 283.573,272.027 282.906,273.027 281.5,273.5C 281.427,271.973 282.094,270.973 283.5,270.5 Z"/></g>
<g><path style="opacity:0.004" fill="#3e3e3e" d="M 240.5,299.5 C 242.144,299.81 243.144,300.81 243.5,302.5C 241.856,302.19 240.856,301.19 240.5,299.5 Z"/></g>
<g><path style="opacity:0.981" fill="#eaeaea" d="M 218.5,344.5 C 220.5,344.5 221.5,345.5 221.5,347.5C 222.342,352.787 222.676,358.12 222.5,363.5C 220.833,363.5 219.167,363.5 217.5,363.5C 216.834,359.316 216.167,354.982 215.5,350.5C 214.167,349.167 212.833,349.167 211.5,350.5C 210.672,354.796 210.172,359.129 210,363.5C 208.057,364.807 206.223,364.807 204.5,363.5C 204.5,354.5 204.5,345.5 204.5,336.5C 206.167,336.5 207.833,336.5 209.5,336.5C 209.335,339.518 209.502,342.518 210,345.5C 212.719,344.556 215.552,344.223 218.5,344.5 Z"/></g>
<g><path style="opacity:0.68" fill="#aeaeae" d="M 244.5,342.5 C 244.5,340.833 244.5,339.167 244.5,337.5C 237.5,337.5 230.5,337.5 223.5,337.5C 223.5,339.167 223.5,340.833 223.5,342.5C 222.539,340.735 222.205,338.735 222.5,336.5C 230.167,336.5 237.833,336.5 245.5,336.5C 245.795,338.735 245.461,340.735 244.5,342.5 Z"/></g>
<g><path style="opacity:0.986" fill="#dddddd" d="M 308.5,363.5 C 306.833,363.5 305.167,363.5 303.5,363.5C 303.813,359.958 303.479,356.625 302.5,353.5C 302.44,352.957 302.107,352.624 301.5,352.5C 299.941,354.889 298.608,357.389 297.5,360C 295.231,360.758 293.064,360.591 291,359.5C 290,356.833 289,354.167 288,351.5C 287.501,355.821 287.334,360.154 287.5,364.5C 285.208,364.756 283.041,364.423 281,363.5C 280.333,354.5 280.333,345.5 281,336.5C 281.414,336.043 281.914,335.709 282.5,335.5C 284.684,334.892 286.684,335.559 288.5,337.5C 290.064,341.879 292.231,345.879 295,349.5C 297.3,345.037 299.8,340.704 302.5,336.5C 304.5,335.167 306.5,335.167 308.5,336.5C 309.822,345.658 309.822,354.658 308.5,363.5 Z"/></g>
<g><path style="opacity:0.982" fill="#cfcece" d="M 312.5,335.5 C 318.36,334.074 320.36,336.074 318.5,341.5C 313.074,343.359 311.074,341.359 312.5,335.5 Z"/></g>
<g><path style="opacity:0.99" fill="#e5e5e5" d="M 359.5,335.5 C 361.5,335.5 363.5,335.5 365.5,335.5C 365.5,345.167 365.5,354.833 365.5,364.5C 360.307,364.114 354.974,363.947 349.5,364C 346.572,362.74 344.739,360.573 344,357.5C 342.804,346.029 347.804,341.696 359,344.5C 359.498,341.518 359.665,338.518 359.5,335.5 Z M 352.5,349.5 C 355.726,349.552 358.06,351.052 359.5,354C 357.859,357.656 355.193,358.823 351.5,357.5C 350.121,354.533 350.454,351.866 352.5,349.5 Z"/></g>
<g><path style="opacity:0.99" fill="#eaeaea" d="M 160.5,336.5 C 160.5,345.5 160.5,354.5 160.5,363.5C 158.708,363.634 157.042,363.301 155.5,362.5C 155.666,358.486 155.499,354.486 155,350.5C 154.283,351.044 153.783,351.711 153.5,352.5C 152.642,355.05 151.642,357.55 150.5,360C 148.527,360.495 146.527,360.662 144.5,360.5C 143.309,357.111 141.809,353.778 140,350.5C 139.501,355.155 139.334,359.821 139.5,364.5C 137.5,364.5 135.5,364.5 133.5,364.5C 133.5,355.167 133.5,345.833 133.5,336.5C 135.857,336.337 138.19,336.503 140.5,337C 143,341.5 145.5,346 148,350.5C 150.264,346.304 152.264,341.971 154,337.5C 156.041,336.577 158.208,336.244 160.5,336.5 Z"/></g>
<g><path style="opacity:0.982" fill="#ededed" d="M 244.5,342.5 C 242.052,343.473 239.385,343.806 236.5,343.5C 236.5,350.5 236.5,357.5 236.5,364.5C 234.5,364.5 232.5,364.5 230.5,364.5C 230.5,357.5 230.5,350.5 230.5,343.5C 227.941,343.802 225.607,343.468 223.5,342.5C 223.5,340.833 223.5,339.167 223.5,337.5C 230.5,337.5 237.5,337.5 244.5,337.5C 244.5,339.167 244.5,340.833 244.5,342.5 Z"/></g>
<g><path style="opacity:0.985" fill="#e1e1e1" d="M 189.5,338.5 C 191.5,338.5 193.5,338.5 195.5,338.5C 195.5,340.167 195.5,341.833 195.5,343.5C 197.5,343.5 199.5,343.5 201.5,343.5C 201.5,345.5 201.5,347.5 201.5,349.5C 199.833,349.5 198.167,349.5 196.5,349.5C 196.335,352.518 196.502,355.518 197,358.5C 198.32,358.799 199.82,358.966 201.5,359C 203.494,363.137 202.16,364.97 197.5,364.5C 194.067,364.867 191.567,363.534 190,360.5C 189.501,356.848 189.335,353.182 189.5,349.5C 188.5,349.5 187.5,349.5 186.5,349.5C 187.154,345.702 188.154,342.036 189.5,338.5 Z"/></g>
<g><path style="opacity:0.359" fill="#838383" d="M 272.5,344.5 C 274.607,343.532 276.941,343.198 279.5,343.5C 279.737,344.791 279.404,345.791 278.5,346.5C 277.082,344.692 275.082,344.025 272.5,344.5 Z"/></g>
<g><path style="opacity:0.986" fill="#e5e5e5" d="M 178.5,344.5 C 180.259,344.954 182.259,344.954 184.5,344.5C 184.5,350.833 184.5,357.167 184.5,363.5C 182.508,363.672 180.842,363.005 179.5,361.5C 178.537,361.97 178.537,362.637 179.5,363.5C 167.531,366.364 162.364,361.697 164,349.5C 167.366,343.718 172.199,342.051 178.5,344.5 Z M 173.5,349.5 C 176.965,349.351 178.965,351.018 179.5,354.5C 176.117,359.79 172.784,359.623 169.5,354C 170.704,352.301 172.038,350.801 173.5,349.5 Z"/></g>
<g><path style="opacity:0.964" fill="#e0e0e0" d="M 260.5,346.5 C 260.427,348.027 261.094,349.027 262.5,349.5C 264.513,353.341 263.513,355.841 259.5,357C 260.5,358 261.5,359 262.5,360C 256.548,365.825 250.381,365.992 244,360.5C 240.559,354.128 241.726,348.628 247.5,344C 250.833,343.333 254.167,343.333 257.5,344C 258.942,344.377 259.942,345.21 260.5,346.5 Z M 251.5,348.5 C 253.681,348.284 255.347,349.117 256.5,351C 254.167,351.667 251.833,351.667 249.5,351C 250.381,350.292 251.047,349.458 251.5,348.5 Z M 249.5,357.5 C 251.966,356.366 254.633,356.199 257.5,357C 254.922,358.813 252.255,358.98 249.5,357.5 Z"/></g>
<g><path style="opacity:0.984" fill="#f1f1f1" d="M 271.5,344.5 C 271.833,344.5 272.167,344.5 272.5,344.5C 275.082,344.025 277.082,344.692 278.5,346.5C 278.586,347.496 278.252,348.329 277.5,349C 274.975,349.424 272.975,350.59 271.5,352.5C 270.518,355.962 270.185,359.629 270.5,363.5C 269.167,363.5 267.833,363.5 266.5,363.5C 266.5,357.167 266.5,350.833 266.5,344.5C 268.167,344.5 269.833,344.5 271.5,344.5 Z"/></g>
<g><path style="opacity:0.99" fill="#e9e7e8" d="M 312.5,343.5 C 314.792,343.244 316.959,343.577 319,344.5C 319.667,350.833 319.667,357.167 319,363.5C 316.959,364.423 314.792,364.756 312.5,364.5C 312.5,357.5 312.5,350.5 312.5,343.5 Z"/></g>
<g><path style="opacity:0.957" fill="#dedede" d="M 341.5,363.5 C 339.833,363.5 338.167,363.5 336.5,363.5C 336.666,359.154 336.499,354.821 336,350.5C 335.329,349.748 334.496,349.414 333.5,349.5C 332.417,349.539 331.417,349.873 330.5,350.5C 329.672,354.796 329.172,359.129 329,363.5C 326.667,364.833 324.333,364.833 322,363.5C 321.333,357.167 321.333,350.833 322,344.5C 323.062,343.903 324.228,343.57 325.5,343.5C 329.359,343.708 333.359,343.874 337.5,344C 338.931,344.465 340.097,345.299 341,346.5C 341.214,351.885 341.714,357.219 342.5,362.5C 342.376,363.107 342.043,363.44 341.5,363.5 Z"/></g>
<g><path style="opacity:0.549" fill="#848484" d="M 218.5,344.5 C 215.552,344.223 212.719,344.556 210,345.5C 209.502,342.518 209.335,339.518 209.5,336.5C 207.833,336.5 206.167,336.5 204.5,336.5C 204.5,345.5 204.5,354.5 204.5,363.5C 203.506,354.348 203.173,345.015 203.5,335.5C 205.833,335.5 208.167,335.5 210.5,335.5C 210.5,338.167 210.5,340.833 210.5,343.5C 213.385,343.194 216.052,343.527 218.5,344.5 Z"/></g>
<g><path style="opacity:0.235" fill="#4e4e4e" d="M 260.5,346.5 C 261.906,346.973 262.573,347.973 262.5,349.5C 261.094,349.027 260.427,348.027 260.5,346.5 Z"/></g>
<g><path style="opacity:0.282" fill="#656565" d="M 221.5,347.5 C 222.222,347.918 222.722,348.584 223,349.5C 223.499,354.489 223.666,359.489 223.5,364.5C 221.265,364.795 219.265,364.461 217.5,363.5C 219.167,363.5 220.833,363.5 222.5,363.5C 222.676,358.12 222.342,352.787 221.5,347.5 Z"/></g>
<g><path style="opacity:0.384" fill="#696969" d="M 155.5,362.5 C 154.833,359.167 154.167,355.833 153.5,352.5C 153.783,351.711 154.283,351.044 155,350.5C 155.499,354.486 155.666,358.486 155.5,362.5 Z"/></g>
<g><path style="opacity:0.434" fill="#7a7a7a" d="M 160.5,336.5 C 161.494,345.652 161.827,354.985 161.5,364.5C 158.918,364.975 156.918,364.308 155.5,362.5C 157.042,363.301 158.708,363.634 160.5,363.5C 160.5,354.5 160.5,345.5 160.5,336.5 Z"/></g>
<g><path style="opacity:0.526" fill="#8e8e8e" d="M 179.5,363.5 C 178.537,362.637 178.537,361.97 179.5,361.5C 180.842,363.005 182.508,363.672 184.5,363.5C 184.5,357.167 184.5,350.833 184.5,344.5C 182.259,344.954 180.259,344.954 178.5,344.5C 180.717,343.631 183.05,343.298 185.5,343.5C 185.5,350.5 185.5,357.5 185.5,364.5C 183.265,364.795 181.265,364.461 179.5,363.5 Z"/></g>
<g><path style="opacity:0.388" fill="#7a7a7a" d="M 333.5,349.5 C 334.496,349.414 335.329,349.748 336,350.5C 336.499,354.821 336.666,359.154 336.5,363.5C 338.167,363.5 339.833,363.5 341.5,363.5C 339.735,364.461 337.735,364.795 335.5,364.5C 335.666,360.154 335.499,355.821 335,351.5C 334.283,350.956 333.783,350.289 333.5,349.5 Z"/></g>
<g><path style="opacity:0.451" fill="#939393" d="M 271.5,344.5 C 269.833,344.5 268.167,344.5 266.5,344.5C 266.5,350.833 266.5,357.167 266.5,363.5C 267.833,363.5 269.167,363.5 270.5,363.5C 270.185,359.629 270.518,355.962 271.5,352.5C 271.5,356.5 271.5,360.5 271.5,364.5C 269.5,364.5 267.5,364.5 265.5,364.5C 265.5,357.5 265.5,350.5 265.5,343.5C 267.735,343.205 269.735,343.539 271.5,344.5 Z"/></g>
<g><path style="opacity:0.529" fill="#929292" d="M 302.5,353.5 C 303.479,356.625 303.813,359.958 303.5,363.5C 305.167,363.5 306.833,363.5 308.5,363.5C 306.735,364.461 304.735,364.795 302.5,364.5C 302.5,360.833 302.5,357.167 302.5,353.5 Z"/></g>
</svg>
